<?xml version="1.0" encoding="UTF-8" standalone="no"?>
<svg
   xmlns:dc="http://purl.org/dc/elements/1.1/"
   xmlns:cc="http://creativecommons.org/ns#"
   xmlns:rdf="http://www.w3.org/1999/02/22-rdf-syntax-ns#"
   xmlns:svg="http://www.w3.org/2000/svg"
   xmlns="http://www.w3.org/2000/svg"
   width="38mm"
   height="38mm"
   viewBox="0 0 250 250"
   version="1.1"
   id="MSR-1">
  <metadata
     id="metadata282">
    <rdf:RDF>
      <cc:Work
         rdf:about="">
        <dc:format>image/svg+xml</dc:format>
        <dc:type
           rdf:resource="http://purl.org/dc/dcmitype/StillImage" />
      </cc:Work>
    </rdf:RDF>
  </metadata>
  <defs
     id="defs280" />
  <circle
     class="Rang"
     cx="125"
     cy="125"
     r="123"
     fill="none"
     stroke="#2f69c2"
     stroke-width="2"
     id="Rang0"
     layer="0" />
  <circle
     class="Rang"
     cx="125"
     cy="125"
     r="117"
     fill="none"
     stroke="#2f69c2"
     stroke-width="2"
     id="Rang2"
     layer="2" />
  <circle
     class="Rang"
     cx="125"
     cy="125"
     r="82"
     fill="none"
     stroke="#2f69c2"
     stroke-width="2"
     id="Rang3"
     layer="3" />
  <g
     font-size="24px"
     font-style="normal"
     font-family="Arial"
     fill="#2f69c2"
     stroke="none"
     font-weight="bold"
     in="0"
     rad="121"
     cut="-126"
     len="347.5"
     id="RangText4"
     layer="4">
    <g
       aria-label="✶"
       transform="rotate(-120.39,75.397466,77.683313)"
       id="text7">
      <path
         d="m 10.054688,-17.8125 1.3125,6.796875 6.550781,-2.261719 -5.238281,4.5351565 5.238281,4.5351563 L 11.367188,-6.46875 10.054688,0.33984375 8.7421875,-6.46875 2.1914063,-4.2070312 7.4296875,-8.7421875 2.1914063,-13.277344 l 6.5507812,2.261719 z"
         id="path284" />
    </g>
    <g
       transform="rotate(-110.14,74.30136,68.70551)"
       id="text11" />
    <g
       transform="rotate(-103.13,75.644981,62.944127)"
       id="text15" />
    <g
       aria-label="D"
       transform="rotate(-93.46,80.105433,55.981977)"
       id="text19">
      <path
         d="m 1.734375,-17.179687 h 6.3398438 q 2.1445312,0 3.2695312,0.328125 1.511719,0.445312 2.589844,1.582031 1.078125,1.136718 1.640625,2.789062 0.5625,1.640625 0.5625,4.0546877 0,2.1210938 -0.527344,3.6562501 -0.644531,1.8749999 -1.839844,3.0351562 -0.902343,0.87890625 -2.4375,1.37109375 Q 10.183594,0 8.2617188,0 H 1.734375 Z m 3.46875,2.906249 v 11.3789067 h 2.5898437 q 1.4531251,0 2.0976563,-0.1640625 0.84375,-0.2109375 1.394531,-0.7148437 0.5625,-0.5039062 0.914063,-1.6523437 0.351562,-1.1601563 0.351562,-3.1523438 0,-1.992188 -0.351562,-3.058594 -0.351563,-1.066406 -0.984375,-1.664062 -0.632813,-0.597657 -1.605469,-0.808594 -0.7265625,-0.164063 -2.8476563,-0.164063 z"
         id="path289" />
    </g>
    <g
       aria-label="e"
       transform="rotate(-82.31,81.89236,43.101712)"
       id="text23">
      <path
         d="m 8.9296875,-3.9609375 3.2812505,0.5507812 q -0.632813,1.8046876 -2.003907,2.7539063 -1.3593747,0.9375 -3.410156,0.9375 -3.2460937,0 -4.8046875,-2.1210937 -1.23046875,-1.6992188 -1.23046875,-4.2890625 0,-3.0937501 1.61718755,-4.8398438 1.6171875,-1.757813 4.0898437,-1.757813 2.7773438,0 4.382813,1.839844 1.605468,1.8281252 1.535156,5.6132815 H 4.1367187 q 0.035156,1.4648437 0.796875,2.2851562 0.7617188,0.8085938 1.8984375,0.8085938 0.7734375,0 1.3007813,-0.421875 0.5273438,-0.421875 0.796875,-1.359375 z m 0.1875,-3.328125 Q 9.0820313,-8.71875 8.3789063,-9.4570313 7.6757812,-10.207031 6.6679687,-10.207031 q -1.078125,0 -1.78125,0.785156 -0.703125,0.7851562 -0.6914062,2.1328125 z"
         id="path292" />
    </g>
    <g
       aria-label="s"
       transform="rotate(-72.34,85.054847,29.848596)"
       id="text27">
      <path
         d="m 0.5625,-3.5507813 3.3046875,-0.5039062 q 0.2109375,0.9609375 0.8554687,1.4648437 0.6445313,0.4921875 1.8046875,0.4921875 1.2773438,0 1.9218751,-0.46875 0.4335937,-0.328125 0.4335937,-0.8789062 0,-0.375 -0.234375,-0.6210937 Q 8.4023438,-4.3007812 7.546875,-4.5 3.5625,-5.3789062 2.4960938,-6.1054687 1.0195312,-7.1132812 1.0195312,-8.90625 q 0,-1.617188 1.2773438,-2.71875 1.2773438,-1.101563 3.9609375,-1.101563 2.5546875,0 3.7968755,0.832032 1.242187,0.832031 1.710937,2.4609372 L 8.6601563,-8.859375 Q 8.4609375,-9.5859375 7.8984375,-9.9726563 7.3476562,-10.359375 6.3164062,-10.359375 q -1.3007812,0 -1.8632812,0.3632812 -0.375,0.2578125 -0.375,0.6679688 0,0.3515625 0.328125,0.5976562 0.4453125,0.328125 3.0703125,0.9257813 2.6367185,0.5976563 3.6796875,1.4648438 1.03125,0.8789062 1.03125,2.4492187 0,1.7109375 -1.429687,2.94140625 Q 9.328125,0.28125 6.5273437,0.28125 3.984375,0.28125 2.4960938,-0.75 1.0195312,-1.78125 0.5625,-3.5507813 Z"
         id="path295" />
    </g>
    <g
       aria-label="i"
       transform="rotate(-64.15,86.6416,14.039205)"
       id="text31">
      <path
         d="m 1.7226562,-14.132813 v -3.046874 H 5.015625 v 3.046874 z M 1.7226562,0 V -12.445313 H 5.015625 V 0 Z"
         id="path298" />
    </g>
    <g
       aria-label="g"
       transform="rotate(-55.37,93.205521,-1.1190707)"
       id="text35">
      <path
         d="m 1.4179687,0.8203125 3.7617188,0.4570312 q 0.09375,0.65625 0.4335937,0.9023438 0.46875,0.3515625 1.4765625,0.3515625 1.2890626,0 1.9335938,-0.3867187 Q 9.4570313,1.8867187 9.6796875,1.3125 9.8320313,0.90234375 9.8320313,-0.19921875 V -2.015625 Q 8.3554688,0 6.1054687,0 3.5976563,0 2.1328125,-2.1210938 0.984375,-3.796875 0.984375,-6.2929687 q 0,-3.1289063 1.5,-4.7812503 1.5117188,-1.652344 3.75,-1.652344 2.3085938,0 3.808594,2.027344 v -1.746094 H 13.125 v 11.1679693 q 0,2.20312495 -0.363281,3.2929687 -0.363281,1.0898438 -1.019531,1.7109375 -0.65625,0.6210937 -1.757813,0.9726562 -1.0898437,0.3515625 -2.765625,0.3515625 -3.1640625,0 -4.4882812,-1.0898437 Q 1.40625,2.8828125 1.40625,1.21875 q 0,-0.1640625 0.011719,-0.3984375 z M 4.359375,-6.4804687 q 0,1.9804687 0.7617187,2.9062499 0.7734375,0.9140625 1.8984375,0.9140625 1.2070313,0 2.0390626,-0.9375 0.8320312,-0.9492187 0.8320312,-2.8007812 0,-1.9335938 -0.796875,-2.8710938 -0.796875,-0.9374997 -2.015625,-0.9374997 -1.1835938,0 -1.9570313,0.925781 -0.7617187,0.9140625 -0.7617187,2.8007813 z"
         id="path301" />
    </g>
    <g
       aria-label="n"
       transform="rotate(-44.22,101.06639,-33.759765)"
       id="text39">
      <path
         d="M 13.042969,0 H 9.75 v -6.3515625 q 0,-2.015625 -0.2109375,-2.6015625 -0.2109375,-0.5976563 -0.6914062,-0.9257813 -0.46875,-0.3281247 -1.1367188,-0.3281247 -0.8554688,0 -1.5351563,0.4687497 -0.6796875,0.46875 -0.9375,1.2421875 -0.2460937,0.7734376 -0.2460937,2.8593751 V 0 H 1.6992187 v -12.445313 h 3.0585938 v 1.828125 q 1.6289062,-2.109375 4.1015625,-2.109375 1.0898438,0 1.992188,0.398438 0.902343,0.386719 1.359375,0.996094 0.46875,0.609375 0.644531,1.3828122 0.1875,0.7734375 0.1875,2.2148438 z"
         id="path304" />
    </g>
    <g
       aria-label="e"
       transform="rotate(-33.66,112.39432,-84.970621)"
       id="text43">
      <path
         d="m 8.9296875,-3.9609375 3.2812505,0.5507812 q -0.632813,1.8046876 -2.003907,2.7539063 -1.3593747,0.9375 -3.410156,0.9375 -3.2460937,0 -4.8046875,-2.1210937 -1.23046875,-1.6992188 -1.23046875,-4.2890625 0,-3.0937501 1.61718755,-4.8398438 1.6171875,-1.757813 4.0898437,-1.757813 2.7773438,0 4.382813,1.839844 1.605468,1.8281252 1.535156,5.6132815 H 4.1367187 q 0.035156,1.4648437 0.796875,2.2851562 0.7617188,0.8085938 1.8984375,0.8085938 0.7734375,0 1.3007813,-0.421875 0.5273438,-0.421875 0.796875,-1.359375 z m 0.1875,-3.328125 Q 9.0820313,-8.71875 8.3789063,-9.4570313 7.6757812,-10.207031 6.6679687,-10.207031 q -1.078125,0 -1.78125,0.785156 -0.703125,0.7851562 -0.6914062,2.1328125 z"
         id="path307" />
    </g>
    <g
       aria-label="d"
       transform="rotate(-23.1,135.4698,-176.60382)"
       id="text47">
      <path
         d="M 13.136719,0 H 10.078125 V -1.828125 Q 9.3164063,-0.76171875 8.2734375,-0.234375 7.2421875,0.28125 6.1875,0.28125 q -2.1445313,0 -3.6796875,-1.7226562 -1.5234375,-1.7343751 -1.5234375,-4.828125 0,-3.1640626 1.4882813,-4.8046878 1.4882812,-1.652344 3.7617187,-1.652344 2.0859375,0 3.609375,1.734375 v -6.187499 h 3.292969 z M 4.3476562,-6.4921875 q 0,1.9921875 0.5507813,2.8828125 0.796875,1.2890625 2.2265625,1.2890625 1.1367188,0 1.9335938,-0.9609375 0.796875,-0.9726562 0.796875,-2.8945312 0,-2.1445313 -0.7734375,-3.0820313 -0.7734375,-0.9492185 -1.9804688,-0.9492185 -1.171875,0 -1.96875,0.9374997 -0.7851563,0.9257813 -0.7851563,2.7773438 z"
         id="path310" />
    </g>
    <g
       transform="rotate(-14.03,178.59931,-380.73764)"
       id="text51" />
    <g
       aria-label="F"
       transform="rotate(-4.95,393.52874,-1248.4277)"
       id="text55">
      <path
         d="M 1.7695312,0 V -17.179687 H 13.546875 v 2.906249 H 5.2382812 v 4.066407 h 7.1718748 v 2.9062498 H 5.2382812 V 0 Z"
         id="path314" />
    </g>
    <g
       aria-label="o"
       transform="rotate(6.2,-194.9692,1195.6588)"
       id="text59">
      <path
         d="m 0.9609375,-6.3984375 q 0,-1.640625 0.8085937,-3.1757813 0.8085938,-1.5351562 2.2851563,-2.3437502 1.4882812,-0.808594 3.3164062,-0.808594 2.8242193,0 4.6289063,1.839844 1.804688,1.8281252 1.804688,4.6289065 0,2.8242187 -1.828125,4.6875 Q 10.160156,0.28125 7.3945312,0.28125 5.6835937,0.28125 4.125,-0.4921875 2.578125,-1.265625 1.7695312,-2.7539063 0.9609375,-4.2539062 0.9609375,-6.3984375 Z m 3.375,0.1757813 q 0,1.8515625 0.8789062,2.8359374 0.8789063,0.984375 2.1679688,0.984375 1.2890625,0 2.15625,-0.984375 0.8789065,-0.9843749 0.8789065,-2.8593749 0,-1.8281251 -0.8789065,-2.8125001 -0.8671875,-0.9843752 -2.15625,-0.9843752 -1.2890625,0 -2.1679688,0.9843752 -0.8789062,0.984375 -0.8789062,2.8359376 z"
         id="path317" />
    </g>
    <g
       aria-label="r"
       transform="rotate(15.58,-37.981213,551.35745)"
       id="text63">
      <path
         d="M 4.875,0 H 1.5820312 V -12.445313 H 4.640625 v 1.769532 q 0.7851562,-1.253907 1.40625,-1.652344 0.6328125,-0.398438 1.4296875,-0.398438 1.125,0 2.1679688,0.621094 L 8.625,-9.234375 q -0.8320313,-0.5390625 -1.546875,-0.5390625 -0.6914063,0 -1.171875,0.3867187 -0.4804688,0.375 -0.7617188,1.3710938 Q 4.875,-7.0195312 4.875,-3.84375 Z"
         id="path320" />
    </g>
    <g
       transform="rotate(22.88,-4.8784953,409.93534)"
       id="text67" />
    <g
       aria-label="P"
       transform="rotate(32.26,17.522769,313.10782)"
       id="text71">
      <path
         d="M 1.7460937,0 V -17.179687 H 7.3125 q 3.164063,0 4.125,0.257812 1.476563,0.386719 2.472656,1.6875 0.996094,1.289062 0.996094,3.339844 0,1.582031 -0.574219,2.660156 -0.574218,1.078125 -1.464843,1.6992188 -0.878907,0.609375 -1.792969,0.8085937 -1.2421877,0.2460938 -3.5976565,0.2460938 H 5.2148437 V 0 Z m 3.46875,-14.273438 v 4.8750005 h 1.8984375 q 2.0507813,0 2.7421876,-0.2695313 0.6914062,-0.2695312 1.0781252,-0.8437502 0.398437,-0.574219 0.398437,-1.335937 0,-0.9375 -0.550781,-1.546875 -0.550781,-0.609375 -1.3945312,-0.761719 -0.6210938,-0.117188 -2.4960938,-0.117188 z"
         id="path324" />
    </g>
    <g
       aria-label="u"
       transform="rotate(43.7,30.97808,257.37818)"
       id="text75">
      <path
         d="M 9.9140625,0 V -1.8632812 Q 9.234375,-0.8671875 8.1210938,-0.29296875 7.0195312,0.28125 5.7890625,0.28125 q -1.2539063,0 -2.25,-0.55078125 Q 2.5429688,-0.8203125 2.0976563,-1.8164062 1.6523437,-2.8125 1.6523437,-4.5703125 v -7.8750005 h 3.2929688 v 5.7187505 q 0,2.625 0.1757812,3.2226562 0.1875,0.5859375 0.6679688,0.9375 0.4804687,0.3398438 1.21875,0.3398438 0.84375,0 1.5117188,-0.4570313 0.6679687,-0.46875 0.9140625,-1.1484375 0.2460937,-0.6914062 0.2460937,-3.3632812 V -12.445313 H 12.972656 V 0 Z"
         id="path327" />
    </g>
    <g
       aria-label="r"
       transform="rotate(53.08,36.620869,231.57354)"
       id="text79">
      <path
         d="M 4.875,0 H 1.5820312 V -12.445313 H 4.640625 v 1.769532 q 0.7851562,-1.253907 1.40625,-1.652344 0.6328125,-0.398438 1.4296875,-0.398438 1.125,0 2.1679688,0.621094 L 8.625,-9.234375 q -0.8320313,-0.5390625 -1.546875,-0.5390625 -0.6914063,0 -1.171875,0.3867187 -0.4804688,0.375 -0.7617188,1.3710938 Q 4.875,-7.0195312 4.875,-3.84375 Z"
         id="path330" />
    </g>
    <g
       aria-label="p"
       transform="rotate(62.45,42.919275,207.77159)"
       id="text83">
      <path
         d="m 1.6289062,-12.445313 h 3.0703125 v 1.828125 q 0.5976563,-0.9375 1.6171875,-1.523437 1.0195313,-0.585938 2.2617188,-0.585938 2.167969,0 3.679688,1.699219 1.511718,1.699219 1.511718,4.7343753 0,3.1171874 -1.523437,4.8515625 Q 10.722656,0.28125 8.5546875,0.28125 q -1.03125,0 -1.875,-0.41015625 Q 5.8476562,-0.5390625 4.921875,-1.5351562 V 4.734375 H 1.6289062 Z m 3.2578125,6.0117193 q 0,2.0976562 0.8320313,3.1054687 0.8320312,0.9960937 2.0273437,0.9960937 1.1484376,0 1.9101563,-0.9140625 0.761719,-0.9257812 0.761719,-3.0234374 0,-1.9570313 -0.7851565,-2.9062501 Q 8.8476563,-10.125 7.6875,-10.125 q -1.2070313,0 -2.0039063,0.9375 -0.796875,0.9257812 -0.796875,2.7539063 z"
         id="path333" />
    </g>
    <g
       aria-label="o"
       transform="rotate(73.6,47.343077,189.38934)"
       id="text87">
      <path
         d="m 0.9609375,-6.3984375 q 0,-1.640625 0.8085937,-3.1757813 0.8085938,-1.5351562 2.2851563,-2.3437502 1.4882812,-0.808594 3.3164062,-0.808594 2.8242193,0 4.6289063,1.839844 1.804688,1.8281252 1.804688,4.6289065 0,2.8242187 -1.828125,4.6875 Q 10.160156,0.28125 7.3945312,0.28125 5.6835937,0.28125 4.125,-0.4921875 2.578125,-1.265625 1.7695312,-2.7539063 0.9609375,-4.2539062 0.9609375,-6.3984375 Z m 3.375,0.1757813 q 0,1.8515625 0.8789062,2.8359374 0.8789063,0.984375 2.1679688,0.984375 1.2890625,0 2.15625,-0.984375 0.8789065,-0.9843749 0.8789065,-2.8593749 0,-1.8281251 -0.8789065,-2.8125001 -0.8671875,-0.9843752 -2.15625,-0.9843752 -1.2890625,0 -2.1679688,0.9843752 -0.8789062,0.984375 -0.8789062,2.8359376 z"
         id="path336" />
    </g>
    <g
       aria-label="s"
       transform="rotate(84.16,50.128513,176.5082)"
       id="text91">
      <path
         d="m 0.5625,-3.5507813 3.3046875,-0.5039062 q 0.2109375,0.9609375 0.8554687,1.4648437 0.6445313,0.4921875 1.8046875,0.4921875 1.2773438,0 1.9218751,-0.46875 0.4335937,-0.328125 0.4335937,-0.8789062 0,-0.375 -0.234375,-0.6210937 Q 8.4023438,-4.3007812 7.546875,-4.5 3.5625,-5.3789062 2.4960938,-6.1054687 1.0195312,-7.1132812 1.0195312,-8.90625 q 0,-1.617188 1.2773438,-2.71875 1.2773438,-1.101563 3.9609375,-1.101563 2.5546875,0 3.7968755,0.832032 1.242187,0.832031 1.710937,2.4609372 L 8.6601563,-8.859375 Q 8.4609375,-9.5859375 7.8984375,-9.9726563 7.3476562,-10.359375 6.3164062,-10.359375 q -1.3007812,0 -1.8632812,0.3632812 -0.375,0.2578125 -0.375,0.6679688 0,0.3515625 0.328125,0.5976562 0.4453125,0.328125 3.0703125,0.9257813 2.6367185,0.5976563 3.6796875,1.4648438 1.03125,0.8789062 1.03125,2.4492187 0,1.7109375 -1.429687,2.94140625 Q 9.328125,0.28125 6.5273437,0.28125 3.984375,0.28125 2.4960938,-0.75 1.0195312,-1.78125 0.5625,-3.5507813 Z"
         id="path339" />
    </g>
    <g
       aria-label="e"
       transform="rotate(94.12,52.616718,166.03207)"
       id="text95">
      <path
         d="m 8.9296875,-3.9609375 3.2812505,0.5507812 q -0.632813,1.8046876 -2.003907,2.7539063 -1.3593747,0.9375 -3.410156,0.9375 -3.2460937,0 -4.8046875,-2.1210937 -1.23046875,-1.6992188 -1.23046875,-4.2890625 0,-3.0937501 1.61718755,-4.8398438 1.6171875,-1.757813 4.0898437,-1.757813 2.7773438,0 4.382813,1.839844 1.605468,1.8281252 1.535156,5.6132815 H 4.1367187 q 0.035156,1.4648437 0.796875,2.2851562 0.7617188,0.8085938 1.8984375,0.8085938 0.7734375,0 1.3007813,-0.421875 0.5273438,-0.421875 0.796875,-1.359375 z m 0.1875,-3.328125 Q 9.0820313,-8.71875 8.3789063,-9.4570313 7.6757812,-10.207031 6.6679687,-10.207031 q -1.078125,0 -1.78125,0.785156 -0.703125,0.7851562 -0.6914062,2.1328125 z"
         id="path342" />
    </g>
    <g
       transform="rotate(102.61,53.249315,159.42109)"
       id="text99" />
    <g
       transform="rotate(109.62,54.598693,153.6171)"
       id="text103" />
    <g
       aria-label="✶"
       transform="rotate(119.87,58.99925,144.20346)"
       id="text107">
      <path
         d="m 10.054688,-17.8125 1.3125,6.796875 6.550781,-2.261719 -5.238281,4.5351565 5.238281,4.5351563 L 11.367188,-6.46875 10.054688,0.33984375 8.7421875,-6.46875 2.1914063,-4.2070312 7.4296875,-8.7421875 2.1914063,-13.277344 l 6.5507812,2.261719 z"
         id="path347" />
    </g>
    <g
       transform="rotate(130.12,57.968923,139.09629)"
       id="text111" />
    <g
       transform="rotate(137.13,58.988192,134.71174)"
       id="text115" />
    <g
       aria-label="1"
       transform="rotate(145.62,61.388337,129.21894)"
       id="text119">
      <path
         d="M 9.4453125,0 H 6.1523437 v -12.410156 q -1.8046875,1.6875 -4.2539062,2.4960935 V -12.902344 Q 3.1875,-13.324219 4.6992187,-14.496094 6.2109375,-15.679688 6.7734375,-17.25 h 2.671875 z"
         id="path352" />
    </g>
    <g
       aria-label="2"
       transform="rotate(155.58,62.691407,123.71272)"
       id="text123">
      <path
         d="M 12.140625,-3.0585938 V 0 H 0.59765625 q 0.1875,-1.734375 1.12499995,-3.28125 0.9375001,-1.5585937 3.703125,-4.125 2.2265625,-2.0742188 2.7304688,-2.8125 0.6796875,-1.019531 0.6796875,-2.015625 0,-1.101563 -0.5976562,-1.6875 -0.5859376,-0.597656 -1.6289063,-0.597656 -1.03125,0 -1.640625,0.621093 -0.609375,0.621094 -0.703125,2.0625 l -3.28125,-0.328125 q 0.2929687,-2.71875 1.8398438,-3.902343 Q 4.3710937,-17.25 6.6914062,-17.25 q 2.5429688,0 3.9960938,1.371094 1.453125,1.371093 1.453125,3.410156 0,1.160156 -0.421875,2.214844 -0.410156,1.0429685 -1.3125,2.191406 -0.5976562,0.7617188 -2.15625,2.1914063 -1.5585938,1.4296875 -1.9804688,1.8984374 -0.4101562,0.46875 -0.6679687,0.9140625 z"
         id="path355" />
    </g>
    <g
       aria-label="1"
       transform="rotate(165.55,63.963824,118.40341)"
       id="text127">
      <path
         d="M 9.4453125,0 H 6.1523437 v -12.410156 q -1.8046875,1.6875 -4.2539062,2.4960935 V -12.902344 Q 3.1875,-13.324219 4.6992187,-14.496094 6.2109375,-15.679688 6.7734375,-17.25 h 2.671875 z"
         id="path358" />
    </g>
    <g
       aria-label="8"
       transform="rotate(175.51,65.193493,113.21557)"
       id="text131">
      <path
         d="M 3.84375,-9.2695313 Q 2.5664063,-9.8085938 1.9804687,-10.746094 1.40625,-11.695313 1.40625,-12.820313 q 0,-1.921875 1.3359375,-3.175781 Q 4.0898437,-17.25 6.5625,-17.25 q 2.4492188,0 3.796875,1.253906 1.359375,1.253906 1.359375,3.175781 0,1.195313 -0.621094,2.132813 -0.621093,0.9257812 -1.7460935,1.4179687 1.4296875,0.5742188 2.1679685,1.6757813 0.75,1.1015625 0.75,2.5429688 0,2.3789062 -1.523437,3.8671875 -1.511719,1.4882812 -4.0312503,1.4882812 -2.34375,0 -3.9023437,-1.23046875 -1.83984375,-1.45312505 -1.83984375,-3.98437495 0,-1.3945313 0.69140625,-2.5546875 0.6914063,-1.1718751 2.1796875,-1.8046876 z m 0.6796875,-3.3164067 q 0,0.984375 0.5507812,1.535157 Q 5.6367187,-10.5 6.5625,-10.5 q 0.9375,0 1.5,-0.550781 0.5625,-0.5625 0.5625,-1.546875 0,-0.925782 -0.5625,-1.476563 -0.5507813,-0.5625 -1.4648438,-0.5625 -0.9492187,0 -1.5117187,0.5625 -0.5625,0.5625 -0.5625,1.488281 z M 4.21875,-5.2265625 q 0,1.359375 0.6914062,2.1210937 0.703125,0.7617188 1.7460938,0.7617188 1.0195312,0 1.6875,-0.7265625 0.6679688,-0.7382813 0.6679688,-2.1210937 0,-1.2070313 -0.6796875,-1.9335938 -0.6796876,-0.7382812 -1.7226563,-0.7382812 -1.2070313,0 -1.8046875,0.8320312 Q 4.21875,-6.1992187 4.21875,-5.2265625 Z"
         id="path361" />
    </g>
    <g
       aria-label="4"
       transform="rotate(-174.52,66.426337,108.05513)"
       id="text135">
      <path
         d="m 7.4765625,0 v -3.4570313 h -7.03125 V -6.3398437 L 7.8984375,-17.25 h 2.7656255 v 10.8984375 h 2.132812 v 2.8945312 H 10.664063 V 0 Z m 0,-6.3515625 v -5.8710935 l -3.9492187,5.8710935 z"
         id="path364" />
    </g>
    <g
       aria-label="9"
       transform="rotate(-164.55,67.667817,102.85516)"
       id="text139">
      <path
         d="m 1.0898437,-3.9726563 3.1875,-0.3515624 q 0.1171875,0.9726562 0.609375,1.4414062 0.4921875,0.46875 1.3007813,0.46875 1.0195312,0 1.734375,-0.9375 0.7148438,-0.9375 0.9140625,-3.890625 -1.2421875,1.4414063 -3.1054688,1.4414063 -2.0273437,0 -3.5039062,-1.5585938 -1.46484375,-1.5703125 -1.46484375,-4.078125 0,-2.613281 1.54687505,-4.207031 Q 3.8671875,-17.25 6.2695312,-17.25 q 2.6132813,0 4.2890628,2.027344 1.675781,2.015625 1.675781,6.644531 0,4.7109375 -1.746094,6.796875 -1.7460935,2.0859375 -4.5468748,2.0859375 -2.0156249,0 -3.2578124,-1.06640625 Q 1.4414062,-1.8398437 1.0898437,-3.9726563 Z m 7.4531251,-7.1953127 q 0,-1.59375 -0.7382813,-2.472656 -0.7265625,-0.878906 -1.6875,-0.878906 -0.9140625,0 -1.5234375,0.726562 -0.5976562,0.714844 -0.5976562,2.355469 0,1.6640625 0.6562499,2.4492187 0.65625,0.7734375 1.640625,0.7734375 0.9492188,0 1.59375,-0.75 0.6562501,-0.75 0.6562501,-2.2031252 z"
         id="path367" />
    </g>
    <g
       aria-label="0"
       transform="rotate(-154.59,68.929701,97.534084)"
       id="text143">
      <path
         d="m 6.5859375,-17.25 q 2.4960938,0 3.9023435,1.78125 1.675782,2.109375 1.675782,6.9960937 0,4.875 -1.6875,7.0078126 -1.3945317,1.75781245 -3.8906255,1.75781245 -2.5078125,0 -4.0429687,-1.92187495 Q 1.0078125,-3.5625 1.0078125,-8.5078125 q 0,-4.8515625 1.6875,-6.9843755 Q 4.0898437,-17.25 6.5859375,-17.25 Z m 0,2.730469 q -0.5976563,0 -1.0664063,0.386718 -0.46875,0.375 -0.7265625,1.359375 -0.3398437,1.277344 -0.3398437,4.3007817 0,3.0234376 0.3046875,4.1601563 0.3046875,1.125 0.7617187,1.5 0.46875,0.375 1.0664063,0.375 0.5976562,0 1.0664062,-0.375 0.4687501,-0.3867188 0.7265626,-1.3710937 0.3398437,-1.265625 0.3398437,-4.2890626 0,-3.0234377 -0.3046875,-4.1484377 -0.3046875,-1.136719 -0.7734375,-1.511719 -0.4570313,-0.386718 -1.0546875,-0.386718 z"
         id="path370" />
    </g>
    <g
       aria-label="9"
       transform="rotate(-144.62,70.254603,91.995851)"
       id="text147">
      <path
         d="m 1.0898437,-3.9726563 3.1875,-0.3515624 q 0.1171875,0.9726562 0.609375,1.4414062 0.4921875,0.46875 1.3007813,0.46875 1.0195312,0 1.734375,-0.9375 0.7148438,-0.9375 0.9140625,-3.890625 -1.2421875,1.4414063 -3.1054688,1.4414063 -2.0273437,0 -3.5039062,-1.5585938 -1.46484375,-1.5703125 -1.46484375,-4.078125 0,-2.613281 1.54687505,-4.207031 Q 3.8671875,-17.25 6.2695312,-17.25 q 2.6132813,0 4.2890628,2.027344 1.675781,2.015625 1.675781,6.644531 0,4.7109375 -1.746094,6.796875 -1.7460935,2.0859375 -4.5468748,2.0859375 -2.0156249,0 -3.2578124,-1.06640625 Q 1.4414062,-1.8398437 1.0898437,-3.9726563 Z m 7.4531251,-7.1953127 q 0,-1.59375 -0.7382813,-2.472656 -0.7265625,-0.878906 -1.6875,-0.878906 -0.9140625,0 -1.5234375,0.726562 -0.5976562,0.714844 -0.5976562,2.355469 0,1.6640625 0.6562499,2.4492187 0.65625,0.7734375 1.640625,0.7734375 0.9492188,0 1.59375,-0.75 0.6562501,-0.75 0.6562501,-2.2031252 z"
         id="path373" />
    </g>
  </g>
  <circle
     class="Rang"
     cx="125"
     cy="125"
     r="57"
     fill="none"
     stroke="#2f69c2"
     stroke-width="2"
     id="Rang5"
     layer="5" />
  <g
     font-size="16px"
     font-style="normal"
     font-family="Arial"
     fill="#2f69c2"
     stroke="none"
     font-weight="bold"
     in="0"
     rad="81"
     cut="-80"
     len="347"
     id="RangText6"
     layer="6">
    <g
       aria-label="L"
       transform="rotate(-75.59,103.80523,17.533998)"
       id="text153">
      <path
         d="m 1.2265625,0 v -11.359375 h 2.3125 v 9.4296875 h 5.75 V 0 Z"
         id="path376" />
    </g>
    <g
       aria-label="O"
       transform="rotate(-61.19,116.4758,-5.7686945)"
       id="text157">
      <path
         d="m 0.6953125,-5.65625 q 0,-1.75 0.5234375,-2.9375 0.390625,-0.875 1.0625,-1.570313 0.6796875,-0.695312 1.484375,-1.03125 1.0703125,-0.453125 2.46875,-0.453125 2.53125,0 4.046875,1.570313 1.523438,1.5703125 1.523438,4.3671875 0,2.7734375 -1.507813,4.34375 -1.5078125,1.5625 -4.03125,1.5625 -2.5546875,0 -4.0625,-1.5546875 -1.5078125,-1.5625 -1.5078125,-4.296875 z M 3.078125,-5.734375 q 0,1.9453125 0.8984375,2.953125 0.8984375,1 2.28125,1 1.3828125,0 2.265625,-0.9921875 0.890625,-1 0.890625,-2.9921875 0,-1.96875 -0.8671875,-2.9375 -0.859375,-0.96875 -2.2890625,-0.96875 -1.4296875,0 -2.3046875,0.984375 -0.875,0.9765625 -0.875,2.953125 z"
         id="path379" />
    </g>
    <g
       aria-label="J"
       transform="rotate(-47.24,133.53295,-42.857882)"
       id="text161">
      <path
         d="m 5.296875,-11.453125 h 2.3046875 v 7.25 q 0,1.421875 -0.25,2.1875 -0.3359375,1 -1.21875,1.609375 Q 5.25,0.1953125 3.8046875,0.1953125 2.109375,0.1953125 1.1953125,-0.75 0.28125,-1.703125 0.2734375,-3.5390625 l 2.1796875,-0.25 q 0.039063,0.984375 0.2890625,1.390625 0.375,0.6171875 1.140625,0.6171875 0.7734375,0 1.09375,-0.4375 0.3203125,-0.4453125 0.3203125,-1.8359375 z"
         id="path382" />
    </g>
    <g
       transform="rotate(-36.23,155.62176,-91.993395)"
       id="text165" />
    <g
       aria-label="E"
       transform="rotate(-24.34,204.90363,-182.15989)"
       id="text169">
      <path
         d="M 1.1640625,0 V -11.453125 H 9.65625 v 1.9375 H 3.4765625 v 2.5390625 h 5.75 v 1.9296875 h -5.75 v 3.1171875 H 9.875 V 0 Z"
         id="path386" />
    </g>
    <g
       aria-label="n"
       transform="rotate(-10.39,396.04221,-565.0541)"
       id="text173">
      <path
         d="M 8.6953125,0 H 6.5 v -4.234375 q 0,-1.34375 -0.140625,-1.734375 -0.140625,-0.3984375 -0.4609375,-0.6171875 -0.3125,-0.21875 -0.7578125,-0.21875 -0.5703125,0 -1.0234375,0.3125 -0.453125,0.3125 -0.625,0.828125 -0.1640625,0.515625 -0.1640625,1.90625 V 0 H 1.1328125 V -8.296875 H 3.171875 v 1.21875 q 1.0859375,-1.40625 2.734375,-1.40625 0.7265625,0 1.328125,0.265625 0.6015625,0.2578125 0.90625,0.6640625 0.3125,0.40625 0.4296875,0.921875 0.125,0.515625 0.125,1.4765625 z"
         id="path389" />
    </g>
    <g
       aria-label="t"
       transform="rotate(0.91,-3717.1535,7808.2208)"
       id="text177">
      <path
         d="m 4.953125,-8.296875 v 1.75 h -1.5 v 3.34375 q 0,1.015625 0.039063,1.1875 0.046875,0.1640625 0.1953125,0.2734375 0.15625,0.109375 0.375,0.109375 0.3046875,0 0.8828125,-0.2109375 l 0.1875,1.703125 Q 4.3671875,0.1875 3.3984375,0.1875 2.8046875,0.1875 2.328125,-0.0078125 1.8515625,-0.2109375 1.625,-0.5234375 1.40625,-0.84375 1.3203125,-1.3828125 1.25,-1.765625 1.25,-2.9296875 V -6.546875 H 0.2421875 v -1.75 H 1.25 v -1.6484375 l 2.203125,-1.2812505 v 2.929688 z"
         id="path392" />
    </g>
    <g
       aria-label="e"
       transform="rotate(11.78,-226.79338,678.93023)"
       id="text181">
      <path
         d="m 5.953125,-2.640625 2.1875,0.3671875 Q 7.71875,-1.0703125 6.8046875,-0.4375 q -0.90625,0.625 -2.2734375,0.625 -2.1640625,0 -3.203125,-1.4140625 -0.8203125,-1.1328125 -0.8203125,-2.859375 0,-2.0625 1.078125,-3.2265625 1.078125,-1.171875 2.7265625,-1.171875 1.8515625,0 2.921875,1.2265625 1.0703125,1.21875 1.0234375,3.7421875 h -5.5 q 0.023437,0.9765625 0.53125,1.5234375 0.5078125,0.5390625 1.265625,0.5390625 0.515625,0 0.8671875,-0.28125 0.3515625,-0.28125 0.53125,-0.90625 z m 0.125,-2.21875 Q 6.0546875,-5.8125 5.5859375,-6.3046875 q -0.46875,-0.5 -1.140625,-0.5 -0.71875,0 -1.1875,0.5234375 -0.46875,0.5234375 -0.4609375,1.421875 z"
         id="path395" />
    </g>
    <g
       aria-label="r"
       transform="rotate(23.08,-83.100289,393.71218)"
       id="text185">
      <path
         d="M 3.25,0 H 1.0546875 V -8.296875 H 3.09375 v 1.1796875 q 0.5234375,-0.8359375 0.9375,-1.1015625 0.421875,-0.265625 0.953125,-0.265625 0.75,0 1.4453125,0.4140625 L 5.75,-6.15625 q -0.5546875,-0.359375 -1.03125,-0.359375 -0.4609375,0 -0.78125,0.2578125 -0.3203125,0.25 -0.5078125,0.9140625 Q 3.25,-4.6796875 3.25,-2.5625 Z"
         id="path398" />
    </g>
    <g
       aria-label="p"
       transform="rotate(34.82,-30.976666,286.24575)"
       id="text189">
      <path
         d="m 1.0859375,-8.296875 h 2.046875 v 1.21875 q 0.3984375,-0.625 1.078125,-1.015625 0.6796875,-0.390625 1.5078125,-0.390625 1.4453125,0 2.453125,1.1328125 1.0078125,1.1328125 1.0078125,3.15625 0,2.078125 -1.015625,3.234375 Q 7.1484375,0.1875 5.703125,0.1875 q -0.6875,0 -1.25,-0.2734375 -0.5546875,-0.2734375 -1.171875,-0.9375 V 3.15625 H 1.0859375 Z m 2.171875,4.0078125 q 0,1.3984375 0.5546875,2.0703125 0.5546875,0.6640625 1.3515625,0.6640625 0.765625,0 1.2734375,-0.609375 0.5078125,-0.6171875 0.5078125,-2.015625 0,-1.3046875 -0.5234375,-1.9375 Q 5.8984375,-6.75 5.125,-6.75 q -0.8046875,0 -1.3359375,0.625 -0.53125,0.6171875 -0.53125,1.8359375 z"
         id="path401" />
    </g>
    <g
       aria-label="r"
       transform="rotate(46.56,-5.808248,236.75218)"
       id="text193">
      <path
         d="M 3.25,0 H 1.0546875 V -8.296875 H 3.09375 v 1.1796875 q 0.5234375,-0.8359375 0.9375,-1.1015625 0.421875,-0.265625 0.953125,-0.265625 0.75,0 1.4453125,0.4140625 L 5.75,-6.15625 q -0.5546875,-0.359375 -1.03125,-0.359375 -0.4609375,0 -0.78125,0.2578125 -0.3203125,0.25 -0.5078125,0.9140625 Q 3.25,-4.6796875 3.25,-2.5625 Z"
         id="path404" />
    </g>
    <g
       aria-label="i"
       transform="rotate(55.66,6.6436561,211.48487)"
       id="text197">
      <path
         d="m 1.1484375,-9.421875 v -2.03125 H 3.34375 v 2.03125 z m 0,9.421875 V -8.296875 H 3.34375 V 0 Z"
         id="path407" />
    </g>
    <g
       aria-label="s"
       transform="rotate(66.08,18.508277,187.55471)"
       id="text201">
      <path
         d="M 0.375,-2.3671875 2.578125,-2.703125 q 0.140625,0.640625 0.5703125,0.9765625 0.4296875,0.328125 1.203125,0.328125 0.8515625,0 1.28125,-0.3125 0.2890625,-0.21875 0.2890625,-0.5859375 0,-0.25 -0.15625,-0.4140625 Q 5.6015625,-2.8671875 5.03125,-3 2.375,-3.5859375 1.6640625,-4.0703125 0.6796875,-4.7421875 0.6796875,-5.9375 q 0,-1.078125 0.8515625,-1.8125 0.8515625,-0.734375 2.640625,-0.734375 1.703125,0 2.53125,0.5546875 Q 7.53125,-7.375 7.84375,-6.2890625 L 5.7734375,-5.90625 Q 5.640625,-6.390625 5.265625,-6.6484375 4.8984375,-6.90625 4.2109375,-6.90625 q -0.8671875,0 -1.2421875,0.2421875 -0.25,0.171875 -0.25,0.4453125 0,0.234375 0.21875,0.3984375 0.296875,0.21875 2.046875,0.6171875 1.7578125,0.3984375 2.453125,0.9765625 0.6875,0.5859375 0.6875,1.6328125 0,1.140625 -0.953125,1.9609375 Q 6.21875,0.1875 4.3515625,0.1875 2.65625,0.1875 1.6640625,-0.5 0.6796875,-1.1875 0.375,-2.3671875 Z"
         id="path410" />
    </g>
    <g
       aria-label="e"
       transform="rotate(78.71,28.076019,168.38909)"
       id="text205">
      <path
         d="m 5.953125,-2.640625 2.1875,0.3671875 Q 7.71875,-1.0703125 6.8046875,-0.4375 q -0.90625,0.625 -2.2734375,0.625 -2.1640625,0 -3.203125,-1.4140625 -0.8203125,-1.1328125 -0.8203125,-2.859375 0,-2.0625 1.078125,-3.2265625 1.078125,-1.171875 2.7265625,-1.171875 1.8515625,0 2.921875,1.2265625 1.0703125,1.21875 1.0234375,3.7421875 h -5.5 q 0.023437,0.9765625 0.53125,1.5234375 0.5078125,0.5390625 1.265625,0.5390625 0.515625,0 0.8671875,-0.28125 0.3515625,-0.28125 0.53125,-0.90625 z m 0.125,-2.21875 Q 6.0546875,-5.8125 5.5859375,-6.3046875 q -0.46875,-0.5 -1.140625,-0.5 -0.71875,0 -1.1875,0.5234375 -0.46875,0.5234375 -0.4609375,1.421875 z"
         id="path413" />
    </g>
    <g
       transform="rotate(89.71,33.650442,156.45188)"
       id="text209" />
    <g
       aria-label="✶"
       transform="rotate(102.33,41.385616,142.61642)"
       id="text213">
      <path
         d="m 6.703125,-11.875 0.875,4.53125 4.367188,-1.5078125 -3.492188,3.0234375 3.492188,3.0234375 L 7.578125,-4.3125 6.703125,0.2265625 5.828125,-4.3125 1.4609375,-2.8046875 4.953125,-5.828125 1.4609375,-8.8515625 5.828125,-7.34375 Z"
         id="path417" />
    </g>
    <g
       transform="rotate(114.95,44.685088,133.97894)"
       id="text217" />
    <g
       transform="rotate(124.34,47.982692,127.26117)"
       id="text221" />
    <g
       transform="rotate(133.73,51.001709,121.10734)"
       id="text225" />
    <g
       aria-label="L"
       transform="rotate(145.18,55.562515,113.71878)"
       id="text229">
      <path
         d="m 1.2265625,0 v -11.359375 h 2.3125 v 9.4296875 h 5.75 V 0 Z"
         id="path423" />
    </g>
    <g
       aria-label="i"
       transform="rotate(156.04,57.130041,108.03495)"
       id="text233">
      <path
         d="m 1.1484375,-9.421875 v -2.03125 H 3.34375 v 2.03125 z m 0,9.421875 V -8.296875 H 3.34375 V 0 Z"
         id="path426" />
    </g>
    <g
       aria-label="m"
       transform="rotate(168.67,63.005637,100.66491)"
       id="text237">
      <path
         d="m 0.984375,-8.296875 h 2.0234375 v 1.1328125 Q 4.09375,-8.484375 5.59375,-8.484375 q 0.796875,0 1.3828125,0.328125 Q 7.5625,-7.828125 7.9375,-7.1640625 8.484375,-7.828125 9.1171875,-8.15625 9.75,-8.484375 10.46875,-8.484375 q 0.914063,0 1.546875,0.375 0.632813,0.3671875 0.945313,1.0859375 0.226562,0.53125 0.226562,1.71875 V 0 h -2.195312 v -4.7421875 q 0,-1.234375 -0.226563,-1.59375 -0.304687,-0.46875 -0.9375,-0.46875 -0.4609375,0 -0.8671875,0.28125 -0.40625,0.28125 -0.5859375,0.828125 Q 8.1953125,-5.15625 8.1953125,-3.984375 V 0 H 6 V -4.546875 Q 6,-5.7578125 5.8828125,-6.109375 5.765625,-6.4609375 5.515625,-6.6328125 5.2734375,-6.8046875 4.8515625,-6.8046875 4.34375,-6.8046875 3.9375,-6.53125 3.53125,-6.2578125 3.3515625,-5.7421875 3.1796875,-5.2265625 3.1796875,-4.03125 V 0 H 0.984375 Z"
         id="path429" />
    </g>
    <g
       aria-label="i"
       transform="rotate(-178.7,63.837787,94.28798)"
       id="text241">
      <path
         d="m 1.1484375,-9.421875 v -2.03125 H 3.34375 v 2.03125 z m 0,9.421875 V -8.296875 H 3.34375 V 0 Z"
         id="path432" />
    </g>
    <g
       aria-label="t"
       transform="rotate(-170.04,66.367304,89.641037)"
       id="text245">
      <path
         d="m 4.953125,-8.296875 v 1.75 h -1.5 v 3.34375 q 0,1.015625 0.039063,1.1875 0.046875,0.1640625 0.1953125,0.2734375 0.15625,0.109375 0.375,0.109375 0.3046875,0 0.8828125,-0.2109375 l 0.1875,1.703125 Q 4.3671875,0.1875 3.3984375,0.1875 2.8046875,0.1875 2.328125,-0.0078125 1.8515625,-0.2109375 1.625,-0.5234375 1.40625,-0.84375 1.3203125,-1.3828125 1.25,-1.765625 1.25,-2.9296875 V -6.546875 H 0.2421875 v -1.75 H 1.25 v -1.6484375 l 2.203125,-1.2812505 v 2.929688 z"
         id="path435" />
    </g>
    <g
       aria-label="e"
       transform="rotate(-159.18,70.27662,83.85342)"
       id="text249">
      <path
         d="m 5.953125,-2.640625 2.1875,0.3671875 Q 7.71875,-1.0703125 6.8046875,-0.4375 q -0.90625,0.625 -2.2734375,0.625 -2.1640625,0 -3.203125,-1.4140625 -0.8203125,-1.1328125 -0.8203125,-2.859375 0,-2.0625 1.078125,-3.2265625 1.078125,-1.171875 2.7265625,-1.171875 1.8515625,0 2.921875,1.2265625 1.0703125,1.21875 1.0234375,3.7421875 h -5.5 q 0.023437,0.9765625 0.53125,1.5234375 0.5078125,0.5390625 1.265625,0.5390625 0.515625,0 0.8671875,-0.28125 0.3515625,-0.28125 0.53125,-0.90625 z m 0.125,-2.21875 Q 6.0546875,-5.8125 5.5859375,-6.3046875 q -0.46875,-0.5 -1.140625,-0.5 -0.71875,0 -1.1875,0.5234375 -0.46875,0.5234375 -0.4609375,1.421875 z"
         id="path438" />
    </g>
    <g
       aria-label="d"
       transform="rotate(-146.11,74.173542,76.624271)"
       id="text253">
      <path
         d="M 8.7578125,0 H 6.71875 V -1.21875 Q 6.2109375,-0.5078125 5.515625,-0.15625 4.828125,0.1875 4.125,0.1875 q -1.4296875,0 -2.453125,-1.1484375 -1.015625,-1.15625 -1.015625,-3.21875 0,-2.109375 0.9921875,-3.203125 Q 2.640625,-8.484375 4.15625,-8.484375 q 1.390625,0 2.40625,1.15625 v -4.125 h 2.1953125 z m -5.859375,-4.328125 q 0,1.328125 0.3671875,1.921875 0.53125,0.859375 1.484375,0.859375 0.7578125,0 1.2890625,-0.640625 0.53125,-0.6484375 0.53125,-1.9296875 0,-1.4296875 -0.515625,-2.0546875 -0.515625,-0.6328125 -1.3203125,-0.6328125 -0.78125,0 -1.3125,0.625 Q 2.8984375,-5.5625 2.8984375,-4.328125 Z"
         id="path441" />
    </g>
    <g
       transform="rotate(-134.66,76.376548,69.425225)"
       id="text257" />
    <g
       transform="rotate(-125.27,79.377209,63.313906)"
       id="text261" />
    <g
       transform="rotate(-115.88,82.640168,56.664457)"
       id="text265" />
    <g
       aria-label="✶"
       transform="rotate(-103.27,89.526516,47.87474)"
       id="text269">
      <path
         d="m 6.703125,-11.875 0.875,4.53125 4.367188,-1.5078125 -3.492188,3.0234375 3.492188,3.0234375 L 7.578125,-4.3125 6.703125,0.2265625 5.828125,-4.3125 1.4609375,-2.8046875 4.953125,-5.828125 1.4609375,-8.8515625 5.828125,-7.34375 Z"
         id="path447" />
    </g>
  </g>
  <circle
     class="Rang"
     cx="125"
     cy="125"
     r="38"
     fill="none"
     stroke="#2f69c2"
     stroke-width="5"
     stroke-dasharray="11% 5.5%"
     id="Rang8"
     layer="8" />
  <circle
     class="Rang"
     cx="125"
     cy="125"
     r="121"
     fill="none"
     stroke="#2f69c2"
     stroke-width="2"
     id="Rang9"
     layer="9" />
  <g
     class="Img_l"
     x="125.5"
     y="124.5"
     s="27"
     al="0"
     transform="matrix(0.27,0,0,0.27,91.25,90.25)"
     id="Img11"
     layer="11">
    <path
       fill="#2f69c2"
       fill-rule="nonzero"
       d="m 151.12,58.97 c -5.39,2.52 -12.88,7.24 -19.44,12.2 -2.61,1.94 -2.78,1.94 -7.32,0.59 -2.53,-0.76 -6.57,-1.35 -8.92,-1.35 -3.62,0 -5.05,0.51 -9.76,3.7 -5.64,3.79 -8,4.46 -22.3,6.48 -6.06,0.84 -7.49,1.35 -9.34,3.37 -1.27,1.35 -2.86,2.44 -3.54,2.44 -2.19,0 -3.95,-0.93 -3.95,-2.11 0,-1.68 -5.81,-6.39 -10.02,-8.16 -2.18,-0.92 -6.14,-2.77 -9,-4.04 -11.95,-5.63 -18.26,-8.41 -19.27,-8.41 -3.7,0 -11.02,12.12 -14.98,24.91 -8.07,25.66 -7.23,56.96 2.02,76.57 1.77,3.7 3.28,5.72 4.72,6.31 1.09,0.42 8.83,0.76 17.16,0.76 h 15.15 l 1.34,-3.2 c 1.01,-2.36 1.18,-4.88 0.85,-10.77 l -0.43,-7.74 3.79,2.1 c 3.62,2.1 3.7,2.19 3.2,5.39 -1.35,7.82 3.03,12.28 10.94,11.36 l 4.37,-0.51 0.51,4.29 c 0.84,6.9 2.02,8.08 9.17,8.92 l 6.14,0.68 0.51,3.28 c 0.67,4.2 2.86,6.06 8.92,7.23 5.38,1.18 11.61,0.68 17.16,-1.26 2.78,-1.01 5.47,-1.26 10.86,-0.84 8.5,0.59 10.1,0 14.3,-5.72 l 2.95,-3.96 h 6.56 c 9.93,0 13.13,-2.02 14.22,-8.83 0.26,-1.43 1.1,-1.77 6.65,-2.11 10.52,-0.75 16.91,-5.89 15.48,-12.45 -0.42,-2.1 -0.17,-2.78 1.94,-4.29 1.43,-1.01 3.87,-1.77 5.55,-1.77 h 3.03 v 4.21 c 0,5.05 1.6,8.41 4.96,10.85 2.19,1.6 3.62,1.77 13.72,1.69 6.14,-0.09 12.12,-0.34 13.21,-0.68 1.35,-0.33 2.44,-1.76 3.62,-4.71 9.26,-23.48 8.33,-63.36 -1.85,-81.03 l -2.52,-4.38 -9.09,0.09 c -4.97,0 -11.19,0.33 -13.89,0.67 -4.46,0.59 -5.13,0.93 -8.58,4.88 -4.37,4.96 -6.23,5.47 -15.82,4.38 -7.99,-1.01 -14.81,-3.45 -17.42,-6.23 -1.93,-2.02 -1.93,-2.27 -0.92,-8.92 1.01,-6.65 1.01,-6.82 -1.1,-10.43 -2.69,-4.55 -4.46,-6.32 -6.22,-6.32 -0.85,0 -4.13,1.27 -7.32,2.87 z m 10.09,3.87 c 1.35,1.51 1.69,3.03 1.6,7.32 -0.08,6.14 -1.18,7.99 -3.45,5.98 -0.84,-0.76 -2.78,-1.94 -4.29,-2.7 -2.78,-1.43 -2.95,-3.53 -0.09,-2.77 0.85,0.25 2.11,-0.26 2.78,-1.01 1.1,-1.27 1.1,-1.77 -0.25,-4.72 -2.53,-5.63 -0.51,-6.73 3.7,-2.1 z m -7.15,2.95 c 0.84,1 0.59,1.34 -1.35,2.18 -3.53,1.27 -13.12,3.45 -13.54,3.03 -0.51,-0.59 4.79,-4.54 7.32,-5.55 3.11,-1.26 6.39,-1.1 7.57,0.34 z m -21.37,8.41 c 16.66,0.25 18,0.67 30.63,9.17 7.74,5.13 12.28,6.9 21.45,7.83 l 5.89,0.67 1.01,5.05 c 1.6,8.08 3.62,30.96 3.62,41.65 v 9.76 l -4.71,1.43 -4.8,1.52 -8.83,-5.72 c -13.55,-8.59 -21.63,-16.08 -26.68,-24.57 -0.84,-1.43 -0.42,-1.18 6.9,3.78 6.23,4.29 10.35,5.72 14.14,5.05 4.21,-0.84 4.38,-2.02 0.25,-2.02 -5.72,0.09 -14.39,-4.96 -29.28,-17 -12.62,-10.18 -17.08,-12.87 -22.13,-13.29 -2.44,-0.17 -7.66,0.34 -11.53,1.09 -14.05,2.95 -21.71,1.69 -28.36,-4.63 -3.45,-3.28 -3.53,-5.46 -0.16,-7.15 6.31,-3.28 14.64,-2.1 14.64,2.11 0,1.76 -0.42,2.18 -2.78,2.35 -1.6,0.17 -4.54,-0.33 -6.73,-1.01 -4.55,-1.6 -4.38,-1.6 -4.38,-0.5 0,1.34 6.73,4.2 9.93,4.2 3.87,0 6.06,-2.52 6.06,-7.06 0,-3.71 0,-3.71 5.39,-6.74 2.94,-1.68 5.55,-3.02 5.8,-3.02 0.17,0 0.76,1.43 1.26,3.28 1.01,3.28 3.12,5.8 4.13,4.79 0.25,-0.25 -0.17,-2.52 -1.01,-5.05 -1.35,-3.95 -1.43,-4.79 -0.42,-5.97 0.84,-1.01 1.85,-1.26 3.7,-0.84 1.43,0.33 9.09,0.75 17,0.84 z M 61.5,85.98 c 0,0.67 -1.18,3.28 -2.53,5.8 -6.39,11.36 -9.59,24.32 -10.6,43.59 -0.59,11.45 -0.59,11.62 -2.52,11.62 -2.02,0 -2.02,-0.17 -2.02,-8.33 0,-12.88 3.95,-31.05 9.34,-42.83 3.7,-8.33 8.33,-13.72 8.33,-9.85 z m 143.3,11.44 c 2.02,11.87 3.03,49.57 1.35,49.57 -0.68,0 -1.94,0.25 -2.95,0.5 -3.62,1.01 -4.54,-1.43 -4.54,-12.12 0,-5.38 -0.59,-14.97 -1.26,-21.2 -0.68,-6.23 -1.52,-13.8 -1.77,-16.83 l -0.51,-5.47 3.2,-1.85 c 1.85,-1.01 3.7,-1.77 4.13,-1.6 0.5,0.09 1.51,4.21 2.35,9 z M 73.95,91.62 c 5.05,6.14 9.34,9.76 13.3,11.1 5.55,1.86 14.14,1.69 20.95,-0.42 6.99,-2.1 11.95,-2.18 15.65,-0.25 4.38,2.19 15.91,11.44 15.4,12.2 -0.5,0.84 14.81,18.51 22.89,26.51 3.36,3.28 7.57,6.31 12.2,8.67 9.42,4.88 11.7,7.06 11.7,11.19 0,4.54 -2.95,6.14 -12.29,6.9 -6.98,0.5 -7.24,0.5 -10.94,-2.02 -2.02,-1.43 -3.7,-2.36 -3.7,-2.11 0,0.34 1.35,2.19 2.94,4.21 2.53,3.11 2.87,3.87 2.19,5.72 -1.51,4.04 -4.37,5.05 -11.69,4.38 -5.22,-0.42 -7.58,-1.18 -11.95,-3.62 l -5.47,-3.03 3.62,4.12 c 3.95,4.55 4.2,5.64 1.85,9.43 -2.11,3.45 -4.46,4.04 -11.36,2.86 -4.88,-0.84 -5.81,-0.84 -9.17,0.76 -5.64,2.52 -6.23,2.1 -2.53,-1.86 4.55,-4.71 6.23,-7.4 6.23,-9.59 0,-2.44 -3.87,-7.07 -5.98,-7.07 -2.18,0 -2.1,-0.33 1.35,-4.79 3.7,-4.8 3.87,-8.33 0.67,-13.38 -2.6,-4.04 -5.63,-5.64 -9.5,-4.88 l -2.44,0.5 1.59,-4.2 c 1.27,-3.29 1.43,-4.8 0.76,-7.16 -1.68,-6.22 -7.83,-7.99 -17.5,-5.13 -2.44,0.67 -4.54,1.18 -4.63,1.01 -5.38,-8.92 -7.99,-10.52 -14.56,-8.83 -9.09,2.35 -17.84,9.5 -19.44,15.81 -2.1,7.91 -2.86,6.65 -2.44,-4.29 0.51,-11.1 1.94,-17.67 7.16,-31.72 3.2,-8.58 5.38,-11.78 8.83,-12.79 3.96,-1.18 3.96,-1.18 6.31,1.77 z m 5.64,33.49 c 0.25,0.42 0,0.84 -0.59,0.84 -2.86,0 -7.49,1.93 -8.24,3.45 -1.18,2.1 -0.51,4.21 2.35,7.57 l 2.19,2.69 -2.1,1.6 c -1.1,0.84 -4.21,3.45 -6.82,5.81 -2.61,2.27 -5.13,4.12 -5.64,4.12 -0.42,0 -2.02,-1.01 -3.45,-2.27 -2.35,-1.93 -2.69,-2.61 -2.27,-5.47 0.51,-3.87 3.2,-8.5 3.79,-6.56 0.5,1.6 3.62,5.05 4.54,5.05 0.34,0 -0.08,-1.27 -1.01,-2.78 -2.44,-3.96 -2.1,-5.3 2.19,-8.25 8.92,-6.14 13.72,-7.99 15.06,-5.8 z m 1.6,5.55 c 1.85,1.77 1.68,2.61 -0.93,5.05 l -2.18,2.02 -1.94,-1.77 c -2.19,-2.1 -3.2,-4.54 -2.44,-5.8 0.84,-1.35 6.06,-1.01 7.49,0.5 z m 23.64,3.28 c 1.44,1.35 2.11,2.95 2.02,4.8 l -0.08,2.78 -1.01,-2.78 c -1.26,-3.62 -3.2,-4.71 -7.74,-4.12 -8.08,0.84 -9.76,4.54 -5.39,11.69 l 2.53,4.13 -2.69,2.27 c -8.5,7.23 -17.34,12.7 -21.21,13.38 -2.61,0.42 -3.36,0.08 -5.97,-2.53 -3.45,-3.45 -3.71,-5.89 -1.01,-9.93 1.76,-2.69 11.19,-10.85 12.45,-10.85 0.34,0 0.17,1.09 -0.25,2.35 -1.01,2.7 -0.51,5.64 1.34,8.17 1.18,1.51 1.27,1.17 0.76,-3.88 -0.59,-6.89 0.17,-8.33 6.14,-11.78 10.69,-6.05 16.67,-7.23 20.11,-3.7 z m -1.59,6.73 c 1.43,3.62 0.67,5.64 -3.03,7.58 -3.12,1.6 -4.21,1.6 -4.21,-0.09 0,-0.75 -0.76,-2.27 -1.68,-3.45 -0.93,-1.17 -1.69,-2.69 -1.69,-3.28 0,-2.1 2.61,-3.7 5.98,-3.7 3.03,0 3.45,0.25 4.63,2.94 z m 13.63,11.78 c 3.11,3.62 2.52,6.99 -2.11,11.53 -7.23,6.9 -22.29,15.82 -26.75,15.82 -4.97,0 -8,-3.95 -8,-10.43 0,-3.37 0.34,-4.04 4.04,-7.24 l 3.96,-3.53 0.67,4.46 c 1.01,6.39 1.01,6.39 3.95,7.91 l 2.61,1.34 -2.1,-4.04 c -4.04,-7.48 -2.78,-11.69 4.63,-15.39 9,-4.55 15.31,-4.72 19.1,-0.43 z m 1.68,19.44 c 2.78,1.94 2.61,7.74 -0.34,11.19 -3.95,4.72 -17.83,7.75 -20.78,4.47 -2.1,-2.28 -2.61,-5.56 -1.01,-6.9 1.18,-0.93 1.77,-0.68 4.21,1.68 3.45,3.28 3.95,2.69 0.84,-1.01 -2.44,-2.95 -2.27,-3.54 2.1,-5.72 4.8,-2.44 6.74,-2.28 6.74,0.67 0,3.28 2.18,6.06 4.71,6.06 1.18,0 2.02,-0.25 1.85,-0.68 -0.17,-0.33 -1.26,-2.43 -2.36,-4.62 -2.02,-4.04 -2.02,-4.13 -0.5,-5.3 2.1,-1.52 2.27,-1.43 4.54,0.16 z m 11.11,-94.83 -8.84,0.51 5.56,1 c 3.03,0.59 8.66,1.1 12.45,1.1 7.41,0 14.22,1.77 21.12,5.64 l 3.79,2.1 -3.79,-3.62 C 152.8,77.14 147.84,75.97 129.66,77.06 Z M 98.52,96.08 89.69,97 l 5.13,0.68 c 4.46,0.59 25.16,-1.43 26.34,-2.53 0.67,-0.67 -13.88,-0.08 -22.63,0.93 z m 91.39,17.25 c 0.33,8.08 0.75,17.75 1.09,21.45 l 0.59,6.74 0.67,-6.74 c 0.93,-8.41 0.09,-25.41 -1.6,-31.55 -1.17,-4.38 -1.17,-3.87 -0.75,10.1 z m -50.49,-7.74 c 1.09,1.09 21.37,14.72 24.32,16.4 2.1,1.27 1.93,1.01 -0.84,-1.51 -5.64,-5.13 -13.21,-10.6 -18.26,-13.13 -4.8,-2.44 -6.82,-3.11 -5.22,-1.77 z m -78.93,2.01 c -1.77,5.22 -3.37,11.36 -3.62,13.72 l -0.42,4.21 1.77,-3.79 c 1.77,-3.79 6.06,-21.46 5.64,-22.89 -0.17,-0.42 -1.69,3.54 -3.37,8.75 z m 82.63,17.17 c 0,2.86 11.45,16.32 13.89,16.32 0.25,0 -2.19,-3.28 -5.56,-7.4 -7.66,-9.26 -8.33,-10.01 -8.33,-8.92 z m 36.1,35.76 c -1.18,0.93 -3.95,2.19 -6.31,2.86 -3.96,1.1 -3.96,1.1 -1.18,1.18 4.12,0 8.42,-1.68 9.93,-3.95 1.52,-2.28 0.51,-2.36 -2.44,-0.09 z m -31.47,14.22 c 0.93,0.42 3.03,0.76 4.63,0.76 1.6,0 3.7,-0.34 4.63,-0.76 1.17,-0.5 -0.34,-0.75 -4.63,-0.75 -4.29,0 -5.81,0.25 -4.63,0.75 z M 105.26,152.2 c -3.37,0.93 -5.89,2.95 -5.89,4.63 0,1.51 5.72,7.66 8.49,9.17 3.79,1.94 3.79,-0.17 0,-4.29 -4.88,-5.3 -4.37,-9 1.1,-7.66 3.62,0.93 4.88,2.86 4.29,6.48 -0.67,3.96 -0.08,4.21 1.68,0.76 3.88,-7.41 -0.67,-11.7 -9.67,-9.09 z"
       id="path274" />
  </g>
</svg>
