<svg xmlns="http://www.w3.org/2000/svg" xmlns:xlink="http://www.w3.org/1999/xlink" width="500" zoomAndPan="magnify" viewBox="0 0 375 374.999991" height="500" preserveAspectRatio="xMidYMid meet" version="1.0"><defs><g/><clipPath id="f7aeb1e2ed"><path d="M 161.28125 144 L 213.78125 144 L 213.78125 231 L 161.28125 231 Z M 161.28125 144 " clip-rule="nonzero"/></clipPath></defs><path fill="#5e17eb" d="M 316.417969 184.347656 C 316.359375 211.761719 307.226562 238.945312 291.066406 261.03125 C 275.667969 282.121094 254.003906 298.40625 229.46875 307.25 C 204 316.449219 175.777344 317.503906 149.722656 310.355469 C 124.488281 303.386719 101.59375 288.796875 84.554688 268.878906 C 67.339844 248.726562 56.449219 223.539062 53.699219 197.175781 C 50.769531 168.996094 58.089844 140 73.136719 116.097656 C 87.015625 94.011719 107.449219 76.320312 131.28125 65.71875 C 156.105469 54.703125 184.210938 51.65625 210.851562 57.046875 C 236.496094 62.203125 260.328125 75.207031 278.652344 93.894531 C 297.097656 112.699219 309.683594 136.894531 314.371094 162.847656 C 315.714844 170.226562 316.417969 177.726562 316.417969 185.226562 C 316.417969 187.214844 316.476562 185.285156 316.417969 184.347656 C 316.359375 157.457031 308.75 131.210938 293.523438 108.949219 C 278.183594 86.574219 255.992188 69.117188 230.582031 59.683594 C 204.234375 49.898438 174.839844 48.847656 147.789062 56.753906 C 121.675781 64.371094 98.257812 80.1875 81.335938 101.570312 C 64.355469 123.011719 54.460938 149.488281 53.113281 176.789062 C 51.824219 202.976562 57.269531 228.984375 70.386719 251.773438 C 83.792969 275.148438 104.402344 294.1875 128.820312 305.667969 C 154.347656 317.679688 183.625 321.078125 211.261719 315.394531 C 237.902344 309.945312 262.492188 296.0625 281.054688 276.144531 C 299.730469 256.167969 311.851562 230.449219 315.363281 203.328125 C 316.125 197.292969 316.476562 191.257812 316.476562 185.167969 C 316.476562 184.230469 316.417969 182.296875 316.417969 184.347656 Z M 316.417969 184.347656 " fill-opacity="1" fill-rule="nonzero"/><path fill="#5e17eb" d="M 220.863281 311.585938 C 194.691406 317.679688 167.054688 315.804688 142.054688 305.902344 C 117.753906 296.238281 96.558594 279.367188 81.804688 257.75 C 66.054688 234.726562 57.328125 205.964844 59.027344 177.960938 C 60.667969 151.539062 70.503906 125.882812 86.78125 105.027344 C 120.214844 62.261719 178.355469 44.160156 230.113281 60.503906 C 254.765625 68.296875 276.898438 83.351562 293.117188 103.503906 C 310.386719 124.886719 320.574219 151.597656 322.097656 179.015625 C 325.144531 233.378906 289.894531 285.457031 239.949219 305.550781 C 233.746094 308.011719 227.363281 310.003906 220.863281 311.585938 C 220.628906 311.644531 221.039062 314.457031 220.863281 314.515625 C 247.914062 308.011719 272.445312 293.191406 290.597656 272.042969 C 308.339844 251.363281 319.347656 225.238281 321.804688 198.113281 C 324.148438 172.21875 319.523438 145.859375 307.578125 122.71875 C 295.046875 98.40625 274.847656 78.429688 250.488281 65.953125 C 226.015625 53.355469 197.792969 48.789062 170.566406 53.003906 C 142.929688 57.28125 116.992188 70.402344 97.203125 90.261719 C 78.054688 109.535156 65.117188 134.667969 60.609375 161.5 C 56.332031 186.921875 59.203125 213.753906 69.214844 237.539062 C 79.8125 262.730469 98.375 284.226562 121.675781 298.582031 C 145.097656 312.933594 172.851562 319.789062 200.253906 317.679688 C 207.21875 317.152344 214.070312 316.039062 220.863281 314.457031 C 221.097656 314.457031 220.6875 311.644531 220.863281 311.585938 Z M 220.863281 311.585938 " fill-opacity="1" fill-rule="nonzero"/><path fill="#5e17eb" d="M 250.136719 299.578125 C 225.605469 312.757812 196.972656 317.738281 169.453125 313.929688 C 143.222656 310.296875 118.222656 298.875 98.492188 281.183594 C 77.996094 262.90625 63.417969 238.183594 57.269531 211.410156 C 51.296875 185.519531 53.289062 157.984375 62.832031 133.203125 C 72.492188 108.132812 89.765625 86.222656 111.957031 71.046875 C 135.671875 54.820312 165.121094 47.382812 193.695312 49.316406 C 220.101562 51.070312 245.746094 60.738281 266.707031 76.90625 C 288.546875 93.777344 304.765625 117.445312 312.847656 143.808594 C 320.632812 169.230469 320.515625 196.765625 312.730469 222.132812 C 304.882812 247.671875 289.308594 270.636719 268.40625 287.273438 C 262.492188 292.019531 256.109375 296.296875 249.4375 299.929688 C 247.621094 300.925781 249.320312 300.046875 250.136719 299.578125 C 274.085938 286.570312 293.816406 267.0625 306.347656 242.753906 C 318.9375 218.265625 323.796875 190.027344 319.933594 162.730469 C 315.949219 134.433594 302.71875 107.722656 282.632812 87.394531 C 263.253906 67.710938 237.785156 54.46875 210.617188 49.667969 C 183.332031 44.863281 154.875 48.789062 129.875 60.738281 C 105.925781 72.21875 85.316406 89.617188 71.324219 112.289062 C 56.917969 135.605469 49.894531 163.199219 51.472656 190.496094 C 53.113281 219.085938 64.179688 246.851562 82.566406 268.820312 C 100.304688 289.96875 124.546875 305.257812 151.246094 312.230469 C 178.0625 319.261719 206.871094 317.679688 232.75 307.71875 C 238.488281 305.492188 244.050781 302.859375 249.496094 299.929688 C 250.253906 299.578125 252.011719 298.582031 250.136719 299.578125 Z M 250.136719 299.578125 " fill-opacity="1" fill-rule="nonzero"/><path fill="#5e17eb" d="M 90.527344 275.617188 C 72.433594 255.171875 60.84375 229.628906 57.621094 202.507812 C 54.519531 176.144531 59.320312 149.078125 71.5 125.472656 C 84.4375 100.28125 105.925781 78.605469 131.6875 66.65625 C 156.046875 55.347656 183.683594 51.773438 210.148438 56.226562 C 264.425781 65.425781 308.632812 108.597656 318.996094 162.730469 C 323.914062 188.503906 321.160156 215.570312 311.03125 239.765625 C 300.316406 265.480469 281.40625 287.449219 257.691406 302.097656 C 210.675781 331.035156 147.207031 324.648438 105.164062 289.792969 C 99.953125 285.398438 95.09375 280.65625 90.527344 275.617188 C 90.351562 275.441406 88.070312 277.199219 87.894531 277.023438 C 106.746094 298.054688 131.804688 312.816406 159.441406 318.792969 C 186.433594 324.648438 215.066406 321.898438 240.476562 311 C 264.660156 300.574219 285.972656 283.761719 300.84375 261.96875 C 316.476562 239.0625 324.617188 211.351562 323.972656 183.644531 C 323.328125 155.699219 313.84375 128.28125 296.921875 106.023438 C 279.765625 83.410156 255.582031 66.539062 228.300781 58.453125 C 201.949219 50.601562 173.203125 51.128906 147.148438 60.035156 C 122.378906 68.53125 99.777344 83.996094 83.382812 104.441406 C 66.054688 126.058594 55.808594 153.003906 54.285156 180.714844 C 52.761719 208.597656 60.082031 236.601562 75.128906 260.09375 C 78.933594 266.066406 83.265625 271.691406 87.953125 276.964844 C 88.128906 277.199219 90.410156 275.441406 90.527344 275.617188 Z M 90.527344 275.617188 " fill-opacity="1" fill-rule="nonzero"/><g clip-path="url(#f7aeb1e2ed)"><path fill="#004aad" d="M 177.128906 166.582031 L 177.128906 159.453125 C 177.128906 158.460938 177.714844 157.644531 178.644531 157.234375 L 178.996094 157.117188 L 209.820312 145.195312 L 210.632812 144.90625 C 211.390625 144.613281 212.148438 144.730469 212.789062 145.136719 C 213.429688 145.605469 213.78125 146.25 213.78125 147.066406 L 213.78125 164.421875 C 213.78125 165.414062 213.199219 166.230469 212.265625 166.640625 L 211.917969 166.757812 L 168.621094 183.527344 C 167.691406 183.878906 167.109375 184.753906 167.109375 185.75 L 167.109375 189.546875 C 167.109375 190.363281 167.457031 191.007812 168.097656 191.476562 C 168.738281 191.941406 169.554688 192 170.253906 191.707031 L 209.761719 176.339844 L 210.578125 176.050781 C 211.332031 175.757812 212.089844 175.875 212.730469 176.28125 C 213.375 176.75 213.722656 177.453125 213.722656 178.210938 L 213.722656 194.398438 C 213.722656 195.390625 213.140625 196.207031 212.207031 196.558594 L 211.859375 196.675781 L 199.097656 201.640625 C 198.164062 201.992188 197.582031 202.871094 197.582031 203.804688 L 197.582031 220.105469 C 197.582031 221.042969 197.117188 221.800781 196.300781 222.210938 L 195.949219 222.386719 L 181.210938 229.921875 L 180.335938 230.332031 C 179.578125 230.742188 178.761719 230.683594 178.0625 230.214844 C 177.363281 229.75 176.957031 229.046875 176.957031 228.230469 L 176.957031 200.941406 C 176.957031 199.949219 177.539062 199.128906 178.46875 198.71875 L 179.636719 198.253906 C 180.394531 197.960938 181.152344 198.078125 181.792969 198.488281 C 182.433594 198.953125 182.78125 199.597656 182.78125 200.414062 L 182.78125 218.585938 C 182.78125 219.40625 183.191406 220.164062 183.890625 220.574219 C 184.589844 221.042969 185.40625 221.042969 186.160156 220.691406 L 190.355469 218.527344 C 191.171875 218.121094 191.640625 217.359375 191.640625 216.425781 L 191.640625 199.714844 C 191.640625 198.71875 192.222656 197.902344 193.152344 197.550781 L 193.503906 197.433594 L 206.265625 192.46875 C 207.195312 192.117188 207.78125 191.242188 207.78125 190.304688 L 207.78125 186.683594 C 207.78125 185.867188 207.429688 185.222656 206.789062 184.753906 C 206.148438 184.289062 205.390625 184.230469 204.632812 184.523438 L 180.917969 193.753906 L 169.207031 198.3125 L 165.125 199.890625 L 164.3125 200.179688 C 163.554688 200.472656 162.796875 200.355469 162.15625 199.949219 C 161.515625 199.480469 161.164062 198.777344 161.164062 198.019531 L 161.164062 181.660156 C 161.164062 180.664062 161.746094 179.847656 162.679688 179.4375 L 163.027344 179.320312 L 169.789062 176.691406 L 189.191406 169.152344 L 206.324219 162.492188 C 207.253906 162.140625 207.835938 161.265625 207.835938 160.273438 L 207.835938 155.421875 C 207.835938 154.605469 207.488281 153.960938 206.847656 153.492188 C 206.207031 153.027344 205.449219 152.96875 204.691406 153.261719 L 184.414062 161.089844 C 183.480469 161.441406 182.898438 162.316406 182.898438 163.3125 L 182.898438 166 C 182.898438 166.992188 182.316406 167.808594 181.382812 168.21875 L 180.21875 168.6875 C 179.460938 168.980469 178.703125 168.863281 178.0625 168.453125 C 177.421875 167.984375 177.070312 167.34375 177.070312 166.523438 Z M 177.128906 166.582031 " fill-opacity="1" fill-rule="evenodd"/></g><g fill="#000000" fill-opacity="1"><g transform="translate(129.381531, 273.562833)"><g><path d="M 7.398438 -17.671875 C 7.703125 -17.671875 8.042969 -17.671875 8.347656 -17.671875 C 8.652344 -17.671875 8.988281 -17.773438 9.292969 -17.773438 C 9.628906 -17.773438 9.933594 -17.707031 10.238281 -17.707031 C 10.578125 -17.707031 10.882812 -17.671875 11.183594 -17.671875 C 11.523438 -17.671875 11.828125 -17.773438 12.164062 -17.773438 C 12.46875 -17.773438 12.773438 -17.671875 13.109375 -17.671875 C 13.414062 -17.671875 13.71875 -17.773438 14.058594 -17.773438 C 14.460938 -17.773438 14.765625 -17.773438 15.070312 -17.875 C 15.375 -18.011719 15.613281 -18.214844 15.78125 -18.550781 C 15.882812 -18.820312 16.015625 -19.125 16.050781 -19.53125 C 16.085938 -19.972656 16.015625 -20.308594 15.949219 -20.546875 C 15.816406 -20.917969 15.613281 -21.152344 15.273438 -21.253906 C 14.96875 -21.324219 14.632812 -21.355469 14.261719 -21.355469 C 13.957031 -21.355469 13.652344 -21.324219 13.347656 -21.324219 C 13.078125 -21.324219 12.773438 -21.390625 12.46875 -21.390625 C 12.164062 -21.390625 11.894531 -21.355469 11.589844 -21.355469 C 11.285156 -21.355469 10.980469 -21.324219 10.679688 -21.355469 C 10.40625 -21.355469 10.105469 -21.355469 9.800781 -21.355469 C 9.496094 -21.355469 9.226562 -21.355469 8.921875 -21.355469 C 8.617188 -21.355469 8.3125 -21.425781 8.042969 -21.425781 C 7.738281 -21.425781 7.433594 -21.457031 7.128906 -21.457031 C 6.859375 -21.425781 6.554688 -21.390625 6.25 -21.355469 C 5.980469 -21.355469 5.710938 -21.289062 5.441406 -21.253906 C 5.171875 -21.253906 4.867188 -21.289062 4.628906 -21.289062 C 4.324219 -21.289062 4.054688 -21.222656 3.820312 -21.222656 C 3.3125 -21.1875 3.242188 -21.558594 2.941406 -21.253906 C 2.636719 -20.917969 2.90625 -20.882812 2.839844 -20.308594 C 2.804688 -20.039062 2.871094 -19.699219 2.839844 -19.363281 C 2.804688 -19.058594 2.738281 -18.753906 2.703125 -18.417969 C 2.703125 -18.214844 2.738281 -17.84375 2.769531 -17.46875 C 2.769531 -17.097656 2.667969 -16.761719 2.667969 -16.523438 C 2.667969 -16.21875 2.636719 -15.914062 2.636719 -15.613281 C 2.636719 -15.273438 2.667969 -14.96875 2.636719 -14.664062 C 2.636719 -14.328125 2.703125 -14.023438 2.703125 -13.71875 C 2.703125 -13.414062 2.703125 -13.078125 2.703125 -12.773438 C 2.667969 -12.46875 2.667969 -12.132812 2.667969 -11.828125 C 2.667969 -11.523438 2.601562 -11.21875 2.601562 -10.882812 C 2.601562 -10.578125 2.636719 -10.273438 2.636719 -9.933594 C 2.636719 -9.628906 2.667969 -9.328125 2.667969 -9.023438 C 2.667969 -8.683594 2.566406 -8.378906 2.566406 -8.078125 C 2.535156 -7.738281 2.667969 -7.433594 2.667969 -7.128906 C 2.667969 -6.824219 2.636719 -6.488281 2.636719 -6.183594 C 2.636719 -5.878906 2.566406 -5.542969 2.566406 -5.238281 C 2.566406 -4.933594 2.636719 -4.628906 2.636719 -4.292969 C 2.636719 -3.988281 2.535156 -3.683594 2.535156 -3.34375 C 2.5 -2.972656 2.535156 -2.667969 2.535156 -2.332031 C 2.566406 -2.027344 2.636719 -1.691406 2.601562 -1.285156 C 2.601562 -0.878906 2.703125 -0.574219 2.941406 -0.371094 C 3.175781 -0.203125 3.546875 -0.167969 3.917969 -0.101562 C 4.222656 -0.0664062 4.5625 0 4.933594 0 C 5.273438 0 5.574219 0 5.746094 -0.136719 C 6.015625 -0.269531 6.082031 -0.574219 6.148438 -0.8125 C 6.21875 -1.113281 6.21875 -1.386719 6.25 -1.621094 C 6.285156 -1.925781 6.351562 -2.230469 6.386719 -2.535156 C 6.386719 -2.839844 6.320312 -3.175781 6.320312 -3.480469 C 6.320312 -3.785156 6.320312 -4.089844 6.320312 -4.394531 C 6.285156 -4.695312 6.320312 -5 6.285156 -5.304688 C 6.285156 -5.609375 6.285156 -5.914062 6.25 -6.21875 C 6.25 -6.488281 6.285156 -6.757812 6.285156 -7.027344 C 6.320312 -7.300781 6.285156 -7.570312 6.285156 -7.804688 C 6.320312 -8.277344 6.148438 -8.3125 6.421875 -8.582031 C 6.722656 -8.886719 6.722656 -8.652344 7.230469 -8.683594 C 7.46875 -8.71875 7.738281 -8.71875 8.042969 -8.71875 C 8.3125 -8.71875 8.582031 -8.753906 8.886719 -8.71875 C 9.15625 -8.753906 9.460938 -8.753906 9.730469 -8.71875 C 10.003906 -8.71875 10.304688 -8.753906 10.578125 -8.753906 C 10.882812 -8.753906 11.152344 -8.71875 11.457031 -8.71875 C 11.726562 -8.71875 12.03125 -8.753906 12.300781 -8.785156 C 12.570312 -8.785156 12.875 -8.753906 13.179688 -8.785156 C 13.484375 -8.851562 13.6875 -9.125 13.855469 -9.394531 C 14.023438 -9.628906 14.089844 -9.933594 14.191406 -10.238281 C 14.292969 -10.542969 14.394531 -10.8125 14.394531 -11.050781 C 14.363281 -11.386719 14.226562 -11.625 14.023438 -11.828125 C 13.855469 -11.996094 13.617188 -12.164062 13.28125 -12.234375 C 12.941406 -12.300781 12.570312 -12.332031 12.234375 -12.367188 C 11.859375 -12.367188 11.488281 -12.300781 11.152344 -12.300781 C 10.847656 -12.300781 10.542969 -12.402344 10.207031 -12.402344 C 9.902344 -12.402344 9.597656 -12.402344 9.257812 -12.402344 C 8.953125 -12.402344 8.652344 -12.332031 8.3125 -12.332031 C 8.007812 -12.332031 7.703125 -12.300781 7.367188 -12.300781 C 7.0625 -12.300781 6.757812 -12.332031 6.453125 -12.332031 C 6.453125 -12.671875 6.488281 -12.941406 6.488281 -13.246094 C 6.488281 -13.550781 6.386719 -13.855469 6.386719 -14.125 C 6.386719 -14.429688 6.488281 -14.734375 6.488281 -15.039062 C 6.488281 -15.308594 6.421875 -15.613281 6.421875 -15.914062 C 6.421875 -16.21875 6.421875 -16.523438 6.421875 -16.828125 C 6.421875 -17.097656 6.488281 -17.367188 6.488281 -17.671875 C 6.792969 -17.671875 7.0625 -17.671875 7.398438 -17.671875 Z M 7.398438 -17.671875 "/></g></g></g><g fill="#000000" fill-opacity="1"><g transform="translate(155.198352, 273.562833)"><g><path d="M 6.792969 -3.820312 C 7.097656 -3.785156 7.398438 -3.71875 7.703125 -3.71875 C 8.042969 -3.71875 8.347656 -3.71875 8.652344 -3.71875 C 8.953125 -3.71875 9.257812 -3.75 9.5625 -3.75 C 9.867188 -3.75 10.171875 -3.75 10.476562 -3.75 C 10.78125 -3.785156 11.117188 -3.851562 11.457031 -3.851562 C 11.828125 -3.820312 12.164062 -3.785156 12.46875 -3.785156 C 13.042969 -3.75 13.042969 -3.953125 13.484375 -3.75 C 13.855469 -3.582031 13.617188 -3.414062 13.886719 -3.007812 C 14.023438 -2.804688 14.226562 -2.601562 14.363281 -2.332031 C 14.496094 -2.09375 14.597656 -1.859375 14.699219 -1.589844 C 14.835938 -1.351562 14.96875 -1.082031 15.003906 -0.84375 C 15.105469 -0.472656 15.273438 -0.304688 15.441406 -0.167969 C 15.644531 -0.0351562 15.882812 -0.0351562 16.21875 -0.0351562 C 16.457031 -0.0351562 16.761719 0 17.066406 0 C 17.402344 0 17.671875 -0.0664062 17.910156 -0.101562 C 18.28125 -0.167969 18.519531 -0.269531 18.621094 -0.472656 C 18.71875 -0.675781 18.6875 -0.945312 18.550781 -1.316406 C 18.449219 -1.554688 18.347656 -1.859375 18.214844 -2.164062 C 18.113281 -2.433594 18.078125 -2.769531 17.945312 -3.042969 C 17.84375 -3.34375 17.640625 -3.582031 17.539062 -3.886719 C 17.402344 -4.191406 17.300781 -4.460938 17.167969 -4.765625 C 17.066406 -5.035156 17.03125 -5.371094 16.929688 -5.644531 C 16.792969 -5.949219 16.625 -6.21875 16.523438 -6.488281 C 16.421875 -6.792969 16.253906 -7.0625 16.152344 -7.332031 C 16.050781 -7.601562 15.984375 -7.90625 15.882812 -8.175781 C 15.78125 -8.449219 15.613281 -8.71875 15.511719 -8.988281 C 15.410156 -9.292969 15.273438 -9.5625 15.171875 -9.832031 C 15.070312 -10.105469 15.003906 -10.40625 14.902344 -10.679688 C 14.800781 -10.980469 14.699219 -11.253906 14.597656 -11.523438 C 14.460938 -11.792969 14.363281 -12.0625 14.226562 -12.367188 C 14.125 -12.636719 14.089844 -12.941406 13.988281 -13.210938 C 13.886719 -13.515625 13.6875 -13.753906 13.585938 -14.023438 C 13.484375 -14.292969 13.414062 -14.597656 13.3125 -14.867188 C 13.179688 -15.171875 13.144531 -15.441406 13.042969 -15.746094 C 12.941406 -16.015625 12.773438 -16.289062 12.636719 -16.558594 C 12.535156 -16.828125 12.46875 -17.132812 12.367188 -17.402344 C 12.234375 -17.671875 12.132812 -17.945312 12.03125 -18.246094 C 11.929688 -18.519531 11.757812 -18.789062 11.65625 -19.058594 C 11.558594 -19.328125 11.421875 -19.597656 11.320312 -19.871094 C 11.152344 -20.308594 11.117188 -20.648438 10.980469 -20.847656 C 10.710938 -21.253906 10.441406 -21.324219 10.105469 -21.355469 C 9.832031 -21.390625 9.527344 -21.390625 9.089844 -21.355469 C 8.785156 -21.355469 8.617188 -21.324219 8.347656 -21.121094 C 8.210938 -20.984375 7.976562 -20.847656 7.773438 -20.546875 C 7.671875 -20.34375 7.636719 -20.070312 7.5 -19.769531 C 7.398438 -19.53125 7.265625 -19.296875 7.164062 -19.023438 C 7.0625 -18.753906 6.996094 -18.449219 6.894531 -18.144531 C 6.792969 -17.875 6.691406 -17.605469 6.589844 -17.300781 C 6.488281 -17.03125 6.386719 -16.726562 6.285156 -16.457031 C 6.183594 -16.152344 6.046875 -15.882812 5.949219 -15.578125 C 5.847656 -15.308594 5.847656 -14.96875 5.746094 -14.699219 C 5.644531 -14.394531 5.472656 -14.160156 5.371094 -13.855469 C 5.273438 -13.585938 5.238281 -13.28125 5.136719 -12.976562 C 5.035156 -12.671875 4.867188 -12.433594 4.765625 -12.132812 C 4.695312 -11.859375 4.59375 -11.558594 4.496094 -11.253906 C 4.394531 -10.980469 4.324219 -10.679688 4.222656 -10.40625 C 4.121094 -10.105469 4.019531 -9.832031 3.917969 -9.527344 C 3.820312 -9.257812 3.75 -8.953125 3.648438 -8.652344 C 3.546875 -8.378906 3.34375 -8.109375 3.242188 -7.839844 C 3.144531 -7.570312 3.175781 -7.230469 3.074219 -6.925781 C 2.972656 -6.65625 2.871094 -6.386719 2.769531 -6.082031 C 2.667969 -5.8125 2.464844 -5.542969 2.367188 -5.273438 C 2.265625 -4.96875 2.265625 -4.664062 2.164062 -4.394531 C 2.0625 -4.089844 1.925781 -3.820312 1.824219 -3.546875 C 1.757812 -3.378906 1.621094 -3.007812 1.453125 -2.601562 C 1.351562 -2.296875 1.25 -1.960938 1.113281 -1.65625 C 0.980469 -1.214844 0.914062 -0.84375 0.914062 -0.675781 C 0.84375 -0.101562 1.046875 0.0351562 1.488281 0.0351562 C 1.789062 0.0664062 2.164062 0 2.601562 0.0351562 C 2.90625 0.0664062 3.3125 0.0664062 3.683594 0 C 4.054688 -0.0664062 4.324219 -0.203125 4.527344 -0.539062 C 4.664062 -0.8125 4.832031 -1.046875 4.933594 -1.316406 C 5.035156 -1.589844 5.136719 -1.859375 5.238281 -2.128906 C 5.339844 -2.398438 5.40625 -2.667969 5.542969 -2.941406 C 5.644531 -3.210938 5.710938 -3.515625 5.847656 -3.785156 C 6.148438 -3.785156 6.488281 -3.820312 6.792969 -3.820312 Z M 7.230469 -8.3125 C 7.332031 -8.617188 7.433594 -8.886719 7.535156 -9.15625 C 7.636719 -9.460938 7.738281 -9.730469 7.839844 -10.035156 C 7.941406 -10.304688 8.042969 -10.578125 8.175781 -10.847656 C 8.277344 -11.152344 8.347656 -11.421875 8.480469 -11.691406 C 8.582031 -11.996094 8.785156 -12.234375 8.886719 -12.503906 C 8.988281 -12.773438 8.988281 -13.109375 9.089844 -13.414062 C 9.191406 -13.6875 9.359375 -13.988281 9.460938 -14.292969 C 9.628906 -13.988281 9.730469 -13.652344 9.867188 -13.414062 C 10.035156 -13.109375 10.238281 -12.875 10.375 -12.605469 C 10.542969 -12.332031 10.644531 -12.03125 10.746094 -11.757812 C 10.882812 -11.488281 10.980469 -11.183594 11.082031 -10.914062 C 11.21875 -10.609375 11.355469 -10.339844 11.457031 -10.035156 C 11.589844 -9.765625 11.757812 -9.496094 11.859375 -9.226562 C 11.996094 -8.921875 12.03125 -8.617188 12.132812 -8.3125 C 12.265625 -8.042969 12.402344 -7.773438 12.535156 -7.46875 C 12.199219 -7.46875 11.929688 -7.433594 11.625 -7.433594 C 11.285156 -7.433594 10.980469 -7.433594 10.679688 -7.433594 C 10.339844 -7.433594 10.035156 -7.5 9.730469 -7.5 C 9.429688 -7.5 9.125 -7.46875 8.785156 -7.46875 C 8.480469 -7.46875 8.175781 -7.46875 7.839844 -7.46875 C 7.535156 -7.46875 7.199219 -7.433594 6.859375 -7.433594 C 6.960938 -7.738281 7.128906 -8.042969 7.230469 -8.3125 Z M 7.230469 -8.3125 "/></g></g></g><g fill="#000000" fill-opacity="1"><g transform="translate(183.481908, 273.562833)"><g><path d="M 6.351562 -11.589844 C 6.351562 -11.894531 6.351562 -12.199219 6.351562 -12.503906 C 6.351562 -12.808594 6.351562 -13.144531 6.351562 -13.449219 C 6.351562 -13.753906 6.421875 -14.058594 6.421875 -14.363281 C 6.421875 -14.664062 6.488281 -15.003906 6.488281 -15.308594 C 6.488281 -15.613281 6.421875 -15.914062 6.421875 -16.21875 C 6.421875 -16.523438 6.386719 -16.828125 6.386719 -17.132812 C 6.386719 -17.46875 6.421875 -17.773438 6.421875 -18.078125 C 6.421875 -18.382812 6.386719 -18.6875 6.386719 -18.992188 C 6.386719 -19.328125 6.488281 -19.632812 6.453125 -19.902344 C 6.421875 -20.273438 6.320312 -20.578125 6.21875 -20.816406 C 6.082031 -21.121094 5.8125 -21.1875 5.472656 -21.253906 C 5.238281 -21.289062 4.933594 -21.355469 4.5625 -21.355469 C 4.222656 -21.355469 3.917969 -21.324219 3.683594 -21.289062 C 3.378906 -21.222656 3.109375 -21.1875 2.941406 -20.847656 C 2.839844 -20.648438 2.769531 -20.375 2.738281 -19.972656 C 2.703125 -19.699219 2.703125 -19.394531 2.703125 -19.058594 C 2.703125 -18.753906 2.769531 -18.484375 2.769531 -18.179688 C 2.769531 -17.875 2.769531 -17.570312 2.769531 -17.265625 C 2.738281 -16.964844 2.738281 -16.660156 2.738281 -16.355469 C 2.738281 -16.050781 2.667969 -15.746094 2.667969 -15.441406 C 2.667969 -15.171875 2.703125 -14.867188 2.703125 -14.5625 C 2.703125 -14.261719 2.738281 -13.957031 2.738281 -13.652344 C 2.738281 -13.347656 2.636719 -13.042969 2.636719 -12.738281 C 2.636719 -12.433594 2.738281 -12.132812 2.738281 -11.828125 C 2.738281 -11.523438 2.703125 -11.21875 2.703125 -10.914062 C 2.703125 -10.609375 2.636719 -10.339844 2.636719 -10.035156 C 2.636719 -9.730469 2.703125 -9.429688 2.703125 -9.125 C 2.703125 -8.820312 2.601562 -8.515625 2.601562 -8.210938 C 2.601562 -7.90625 2.601562 -7.636719 2.601562 -7.332031 C 2.601562 -7.027344 2.667969 -6.722656 2.667969 -6.421875 C 2.667969 -6.117188 2.601562 -5.8125 2.601562 -5.507812 C 2.601562 -5.238281 2.667969 -4.933594 2.667969 -4.628906 C 2.667969 -4.324219 2.636719 -4.019531 2.636719 -3.71875 C 2.636719 -3.445312 2.566406 -3.144531 2.566406 -2.839844 C 2.566406 -2.566406 2.566406 -2.265625 2.535156 -1.890625 C 2.5 -1.621094 2.5 -1.316406 2.5 -0.945312 C 2.464844 -0.507812 2.667969 -0.203125 2.972656 -0.0664062 C 3.3125 0.136719 3.785156 0.0664062 3.988281 0.0664062 C 4.292969 0.0664062 4.628906 0.0351562 4.933594 0.0351562 C 5.273438 0 5.609375 -0.0351562 5.878906 -0.101562 C 6.21875 -0.238281 6.421875 -0.40625 6.386719 -0.742188 C 6.351562 -1.015625 6.386719 -1.285156 6.386719 -1.554688 C 6.386719 -1.824219 6.351562 -2.09375 6.351562 -2.332031 C 6.351562 -2.601562 6.453125 -2.871094 6.453125 -3.144531 C 6.453125 -3.445312 6.421875 -3.75 6.421875 -4.054688 C 6.421875 -4.394531 6.453125 -4.695312 6.453125 -5 C 6.453125 -5.339844 6.421875 -5.644531 6.421875 -5.949219 C 6.421875 -6.25 6.421875 -6.589844 6.421875 -6.894531 C 6.421875 -7.199219 6.421875 -7.535156 6.421875 -7.839844 C 6.421875 -8.144531 6.421875 -8.480469 6.421875 -8.785156 C 6.421875 -9.089844 6.421875 -9.394531 6.421875 -9.730469 C 6.421875 -10.035156 6.488281 -10.339844 6.488281 -10.679688 C 6.488281 -10.949219 6.351562 -11.285156 6.351562 -11.589844 Z M 6.351562 -11.589844 "/></g></g></g><g fill="#000000" fill-opacity="1"><g transform="translate(201.290289, 273.562833)"><g><path d="M 10.339844 -17.605469 C 10.679688 -17.605469 11.015625 -17.570312 11.285156 -17.570312 C 11.625 -17.570312 11.929688 -17.570312 12.234375 -17.570312 C 12.570312 -17.570312 12.875 -17.570312 13.179688 -17.570312 C 13.585938 -17.570312 13.886719 -17.671875 14.125 -17.808594 C 14.394531 -17.976562 14.597656 -18.214844 14.664062 -18.585938 C 14.734375 -18.855469 14.765625 -19.195312 14.765625 -19.566406 C 14.765625 -19.902344 14.699219 -20.207031 14.632812 -20.445312 C 14.5625 -20.75 14.394531 -21.019531 14.125 -21.121094 C 13.921875 -21.222656 13.617188 -21.253906 13.246094 -21.253906 C 12.941406 -21.253906 12.636719 -21.253906 12.332031 -21.289062 C 12.03125 -21.289062 11.691406 -21.253906 11.386719 -21.253906 C 11.082031 -21.253906 10.78125 -21.289062 10.476562 -21.289062 C 10.171875 -21.289062 9.867188 -21.253906 9.5625 -21.253906 C 9.257812 -21.253906 8.953125 -21.324219 8.617188 -21.324219 C 8.3125 -21.324219 8.007812 -21.253906 7.703125 -21.253906 C 7.398438 -21.253906 7.097656 -21.289062 6.792969 -21.289062 C 6.488281 -21.289062 6.183594 -21.289062 5.847656 -21.289062 C 5.542969 -21.324219 5.238281 -21.355469 4.933594 -21.390625 C 4.628906 -21.390625 4.324219 -21.355469 4.019531 -21.355469 C 3.71875 -21.355469 3.414062 -21.390625 3.074219 -21.390625 C 2.769531 -21.390625 2.464844 -21.390625 2.164062 -21.390625 C 1.859375 -21.425781 1.488281 -21.390625 1.285156 -21.222656 C 1.082031 -21.019531 0.914062 -20.78125 0.84375 -20.546875 C 0.742188 -20.242188 0.8125 -19.9375 0.8125 -19.699219 C 0.84375 -19.394531 0.710938 -19.058594 0.742188 -18.753906 C 0.777344 -18.449219 0.914062 -18.179688 1.214844 -17.945312 C 1.417969 -17.773438 1.691406 -17.640625 2.027344 -17.640625 C 2.296875 -17.605469 2.636719 -17.640625 2.90625 -17.605469 C 3.242188 -17.605469 3.582031 -17.605469 3.886719 -17.570312 C 4.222656 -17.539062 4.5625 -17.539062 4.832031 -17.503906 C 5.441406 -17.46875 5.507812 -17.773438 5.8125 -17.402344 C 6.117188 -17.03125 5.8125 -16.996094 5.8125 -16.390625 C 5.8125 -16.085938 5.777344 -15.746094 5.8125 -15.375 C 5.8125 -15.039062 5.878906 -14.699219 5.878906 -14.363281 C 5.878906 -14.089844 5.777344 -13.785156 5.777344 -13.449219 C 5.777344 -13.144531 5.8125 -12.839844 5.8125 -12.535156 C 5.8125 -12.234375 5.777344 -11.929688 5.777344 -11.625 C 5.777344 -11.320312 5.746094 -11.015625 5.746094 -10.710938 C 5.746094 -10.40625 5.777344 -10.070312 5.777344 -9.765625 C 5.777344 -9.460938 5.777344 -9.15625 5.777344 -8.851562 C 5.777344 -8.550781 5.8125 -8.246094 5.8125 -7.941406 C 5.8125 -7.636719 5.847656 -7.300781 5.847656 -6.996094 C 5.847656 -6.691406 5.777344 -6.386719 5.8125 -6.082031 C 5.8125 -5.777344 5.847656 -5.472656 5.847656 -5.171875 C 5.847656 -4.867188 5.878906 -4.5625 5.878906 -4.257812 C 5.878906 -3.953125 5.8125 -3.648438 5.8125 -3.34375 C 5.8125 -3.042969 5.8125 -2.738281 5.847656 -2.433594 C 5.847656 -2.128906 5.878906 -1.824219 5.878906 -1.519531 C 5.878906 -1.046875 5.914062 -0.742188 6.015625 -0.507812 C 6.148438 -0.101562 6.386719 0.0664062 6.757812 0.101562 C 7.0625 0.101562 7.398438 0.0664062 7.804688 0.0664062 C 8.246094 0.0351562 8.550781 -0.0351562 8.785156 -0.101562 C 9.226562 -0.167969 9.359375 -0.339844 9.460938 -0.640625 C 9.5625 -0.878906 9.597656 -1.183594 9.597656 -1.589844 C 9.597656 -1.890625 9.5625 -2.230469 9.5625 -2.566406 C 9.5625 -2.871094 9.597656 -3.210938 9.5625 -3.546875 C 9.5625 -3.851562 9.527344 -4.191406 9.527344 -4.527344 C 9.527344 -4.832031 9.5625 -5.171875 9.5625 -5.472656 C 9.5625 -5.8125 9.496094 -6.148438 9.496094 -6.453125 C 9.496094 -6.792969 9.628906 -7.097656 9.628906 -7.433594 C 9.628906 -7.738281 9.628906 -8.078125 9.597656 -8.378906 C 9.597656 -8.71875 9.5625 -9.054688 9.5625 -9.359375 C 9.5625 -9.664062 9.597656 -9.96875 9.597656 -10.273438 C 9.597656 -10.578125 9.496094 -10.882812 9.496094 -11.183594 C 9.496094 -11.488281 9.460938 -11.792969 9.460938 -12.097656 C 9.460938 -12.402344 9.429688 -12.707031 9.429688 -13.011719 C 9.429688 -13.3125 9.429688 -13.617188 9.429688 -13.921875 C 9.429688 -14.226562 9.394531 -14.53125 9.394531 -14.835938 C 9.394531 -15.140625 9.460938 -15.441406 9.460938 -15.78125 C 9.460938 -16.050781 9.429688 -16.355469 9.429688 -16.691406 C 9.394531 -16.996094 9.460938 -17.234375 9.429688 -17.570312 C 9.765625 -17.570312 10.035156 -17.605469 10.339844 -17.605469 Z M 10.339844 -17.605469 "/></g></g></g><g fill="#000000" fill-opacity="1"><g transform="translate(225.518933, 273.562833)"><g><path d="M 6.386719 -13.28125 C 6.386719 -13.585938 6.421875 -13.855469 6.386719 -14.089844 C 6.386719 -14.363281 6.351562 -14.632812 6.351562 -14.902344 C 6.320312 -15.171875 6.320312 -15.441406 6.25 -15.679688 C 6.25 -15.949219 6.117188 -16.253906 6.117188 -16.589844 C 6.082031 -16.863281 6.148438 -17.167969 6.148438 -17.46875 C 6.148438 -17.773438 6.082031 -18.078125 6.046875 -18.382812 C 6.046875 -18.6875 6.082031 -19.023438 6.082031 -19.296875 C 6.082031 -19.632812 6.046875 -19.9375 6.015625 -20.207031 C 6.015625 -20.546875 5.914062 -20.75 5.8125 -20.917969 C 5.675781 -21.121094 5.472656 -21.222656 5.171875 -21.253906 C 4.933594 -21.289062 4.695312 -21.289062 4.394531 -21.289062 C 4.089844 -21.324219 3.820312 -21.425781 3.582031 -21.425781 C 3.277344 -21.390625 3.074219 -21.222656 2.90625 -21.050781 C 2.769531 -20.917969 2.667969 -20.714844 2.636719 -20.34375 C 2.601562 -20.171875 2.5 -19.800781 2.535156 -19.464844 C 2.535156 -19.09375 2.636719 -18.753906 2.636719 -18.550781 C 2.636719 -18.246094 2.601562 -17.945312 2.601562 -17.640625 C 2.601562 -17.335938 2.566406 -17.03125 2.566406 -16.726562 C 2.566406 -16.421875 2.601562 -16.117188 2.601562 -15.816406 C 2.601562 -15.511719 2.667969 -15.207031 2.667969 -14.9375 C 2.667969 -14.632812 2.566406 -14.328125 2.566406 -14.023438 C 2.566406 -13.71875 2.601562 -13.414062 2.601562 -13.109375 C 2.601562 -12.808594 2.667969 -12.503906 2.667969 -12.199219 C 2.667969 -11.894531 2.667969 -11.589844 2.667969 -11.320312 C 2.703125 -11.015625 2.601562 -10.710938 2.636719 -10.40625 C 2.636719 -10.105469 2.636719 -9.800781 2.636719 -9.496094 C 2.636719 -9.191406 2.667969 -8.886719 2.667969 -8.582031 C 2.667969 -8.277344 2.703125 -7.976562 2.703125 -7.671875 C 2.703125 -7.398438 2.667969 -7.097656 2.667969 -6.792969 C 2.667969 -6.488281 2.601562 -6.183594 2.601562 -5.878906 C 2.636719 -5.574219 2.667969 -5.273438 2.667969 -4.96875 C 2.703125 -4.664062 2.738281 -4.359375 2.738281 -4.054688 C 2.738281 -3.785156 2.738281 -3.480469 2.738281 -3.175781 C 2.738281 -2.839844 2.769531 -2.535156 2.804688 -2.296875 C 2.804688 -1.960938 2.738281 -1.65625 2.769531 -1.386719 C 2.839844 -1.046875 3.007812 -0.8125 3.109375 -0.609375 C 3.277344 -0.304688 3.445312 -0.0664062 3.71875 0 C 3.953125 0.0664062 4.257812 0.0351562 4.59375 0.0351562 C 5 0.0351562 5.339844 -0.0351562 5.574219 -0.167969 C 5.878906 -0.339844 6.015625 -0.675781 6.117188 -1.015625 C 6.183594 -1.316406 6.21875 -1.65625 6.21875 -1.992188 C 6.21875 -2.332031 6.25 -2.703125 6.285156 -3.007812 C 6.320312 -3.3125 6.285156 -3.648438 6.285156 -3.953125 C 6.320312 -4.257812 6.351562 -4.5625 6.351562 -4.898438 C 6.351562 -5.203125 6.351562 -5.507812 6.351562 -5.847656 C 6.351562 -6.148438 6.320312 -6.453125 6.320312 -6.792969 C 6.320312 -7.097656 6.386719 -7.398438 6.386719 -7.738281 C 6.386719 -8.042969 6.320312 -8.414062 6.351562 -8.71875 C 6.65625 -8.71875 6.996094 -8.652344 7.300781 -8.652344 C 7.601562 -8.652344 7.941406 -8.617188 8.246094 -8.617188 C 8.550781 -8.617188 8.851562 -8.71875 9.191406 -8.71875 C 9.496094 -8.683594 9.800781 -8.617188 10.136719 -8.617188 C 10.441406 -8.617188 10.746094 -8.582031 11.082031 -8.582031 C 11.386719 -8.582031 11.691406 -8.683594 12.03125 -8.683594 C 12.332031 -8.652344 12.636719 -8.617188 12.941406 -8.617188 C 13.28125 -8.617188 13.550781 -8.582031 13.855469 -8.582031 C 13.886719 -8.277344 13.957031 -8.007812 13.988281 -7.738281 C 13.988281 -7.433594 13.886719 -7.128906 13.886719 -6.859375 C 13.921875 -6.554688 14.023438 -6.285156 14.023438 -5.980469 C 14.058594 -5.675781 14.023438 -5.40625 14.058594 -5.101562 C 14.058594 -4.832031 14.089844 -4.527344 14.089844 -4.222656 C 14.125 -3.953125 14.058594 -3.648438 14.089844 -3.34375 C 14.089844 -3.042969 14.125 -2.738281 14.160156 -2.433594 C 14.160156 -2.128906 14.089844 -1.824219 14.125 -1.519531 C 14.125 -1.183594 14.160156 -0.914062 14.226562 -0.710938 C 14.363281 -0.40625 14.597656 -0.269531 14.867188 -0.167969 C 15.070312 -0.0664062 15.339844 0.0351562 15.644531 0.0351562 C 15.949219 0.0664062 16.21875 0 16.457031 -0.0664062 C 16.761719 -0.167969 16.929688 -0.304688 17.066406 -0.539062 C 17.199219 -0.742188 17.234375 -0.980469 17.234375 -1.316406 C 17.300781 -1.722656 17.300781 -2.09375 17.300781 -2.5 C 17.300781 -2.804688 17.367188 -3.144531 17.367188 -3.445312 C 17.367188 -3.75 17.402344 -4.089844 17.402344 -4.394531 C 17.402344 -4.695312 17.367188 -5 17.367188 -5.339844 C 17.367188 -5.644531 17.300781 -5.949219 17.300781 -6.25 C 17.300781 -6.589844 17.367188 -6.894531 17.367188 -7.199219 C 17.367188 -7.535156 17.335938 -7.839844 17.335938 -8.144531 C 17.335938 -8.449219 17.4375 -8.785156 17.4375 -9.089844 C 17.4375 -9.394531 17.4375 -9.699219 17.4375 -10.035156 C 17.4375 -10.339844 17.335938 -10.644531 17.335938 -10.949219 C 17.335938 -11.285156 17.367188 -11.589844 17.367188 -11.894531 C 17.367188 -12.234375 17.335938 -12.535156 17.335938 -12.839844 C 17.335938 -13.144531 17.4375 -13.484375 17.4375 -13.785156 C 17.4375 -14.089844 17.46875 -14.394531 17.46875 -14.734375 C 17.46875 -15.039062 17.4375 -15.339844 17.4375 -15.644531 C 17.4375 -15.984375 17.402344 -16.289062 17.402344 -16.589844 C 17.402344 -16.929688 17.402344 -17.234375 17.402344 -17.539062 C 17.402344 -17.84375 17.402344 -18.179688 17.402344 -18.484375 C 17.402344 -18.71875 17.46875 -19.023438 17.46875 -19.328125 C 17.503906 -19.632812 17.4375 -19.9375 17.402344 -20.207031 C 17.335938 -20.546875 17.167969 -20.816406 16.996094 -20.984375 C 16.761719 -21.222656 16.492188 -21.390625 16.1875 -21.457031 C 15.882812 -21.492188 15.578125 -21.324219 15.273438 -21.253906 C 15.003906 -21.1875 14.664062 -21.152344 14.429688 -21.050781 C 14.125 -20.949219 13.886719 -20.816406 13.753906 -20.511719 C 13.6875 -20.242188 13.71875 -19.902344 13.71875 -19.496094 C 13.71875 -19.195312 13.652344 -18.820312 13.6875 -18.484375 C 13.6875 -18.113281 13.753906 -17.773438 13.753906 -17.503906 C 13.71875 -17.167969 13.820312 -16.863281 13.820312 -16.523438 C 13.820312 -16.21875 13.753906 -15.882812 13.753906 -15.578125 C 13.753906 -15.238281 13.855469 -14.9375 13.855469 -14.597656 C 13.855469 -14.292969 13.785156 -13.957031 13.785156 -13.652344 C 13.785156 -13.3125 13.753906 -13.042969 13.71875 -12.707031 C 13.347656 -12.671875 13.078125 -12.605469 12.808594 -12.605469 C 12.433594 -12.570312 12.132812 -12.605469 11.828125 -12.605469 C 11.558594 -12.605469 11.253906 -12.636719 10.949219 -12.636719 C 10.644531 -12.605469 10.339844 -12.503906 10.035156 -12.503906 C 9.730469 -12.503906 9.429688 -12.46875 9.125 -12.46875 C 8.820312 -12.46875 8.515625 -12.46875 8.210938 -12.46875 C 7.90625 -12.46875 7.601562 -12.433594 7.300781 -12.433594 C 6.996094 -12.433594 6.691406 -12.503906 6.386719 -12.503906 C 6.386719 -12.773438 6.386719 -13.042969 6.386719 -13.28125 Z M 6.386719 -13.28125 "/></g></g></g><g fill="#000000" fill-opacity="1"><g transform="translate(103.204248, 118.38695)"><g><path d="M 6.386719 -13.28125 C 6.386719 -13.585938 6.421875 -13.855469 6.386719 -14.089844 C 6.386719 -14.363281 6.351562 -14.632812 6.351562 -14.902344 C 6.320312 -15.171875 6.320312 -15.441406 6.25 -15.679688 C 6.25 -15.949219 6.117188 -16.253906 6.117188 -16.589844 C 6.082031 -16.863281 6.148438 -17.167969 6.148438 -17.46875 C 6.148438 -17.773438 6.082031 -18.078125 6.046875 -18.382812 C 6.046875 -18.6875 6.082031 -19.023438 6.082031 -19.296875 C 6.082031 -19.632812 6.046875 -19.9375 6.015625 -20.207031 C 6.015625 -20.546875 5.914062 -20.75 5.8125 -20.917969 C 5.675781 -21.121094 5.472656 -21.222656 5.171875 -21.253906 C 4.933594 -21.289062 4.695312 -21.289062 4.394531 -21.289062 C 4.089844 -21.324219 3.820312 -21.425781 3.582031 -21.425781 C 3.277344 -21.390625 3.074219 -21.222656 2.90625 -21.050781 C 2.769531 -20.917969 2.667969 -20.714844 2.636719 -20.34375 C 2.601562 -20.171875 2.5 -19.800781 2.535156 -19.464844 C 2.535156 -19.09375 2.636719 -18.753906 2.636719 -18.550781 C 2.636719 -18.246094 2.601562 -17.945312 2.601562 -17.640625 C 2.601562 -17.335938 2.566406 -17.03125 2.566406 -16.726562 C 2.566406 -16.421875 2.601562 -16.117188 2.601562 -15.816406 C 2.601562 -15.511719 2.667969 -15.207031 2.667969 -14.9375 C 2.667969 -14.632812 2.566406 -14.328125 2.566406 -14.023438 C 2.566406 -13.71875 2.601562 -13.414062 2.601562 -13.109375 C 2.601562 -12.808594 2.667969 -12.503906 2.667969 -12.199219 C 2.667969 -11.894531 2.667969 -11.589844 2.667969 -11.320312 C 2.703125 -11.015625 2.601562 -10.710938 2.636719 -10.40625 C 2.636719 -10.105469 2.636719 -9.800781 2.636719 -9.496094 C 2.636719 -9.191406 2.667969 -8.886719 2.667969 -8.582031 C 2.667969 -8.277344 2.703125 -7.976562 2.703125 -7.671875 C 2.703125 -7.398438 2.667969 -7.097656 2.667969 -6.792969 C 2.667969 -6.488281 2.601562 -6.183594 2.601562 -5.878906 C 2.636719 -5.574219 2.667969 -5.273438 2.667969 -4.96875 C 2.703125 -4.664062 2.738281 -4.359375 2.738281 -4.054688 C 2.738281 -3.785156 2.738281 -3.480469 2.738281 -3.175781 C 2.738281 -2.839844 2.769531 -2.535156 2.804688 -2.296875 C 2.804688 -1.960938 2.738281 -1.65625 2.769531 -1.386719 C 2.839844 -1.046875 3.007812 -0.8125 3.109375 -0.609375 C 3.277344 -0.304688 3.445312 -0.0664062 3.71875 0 C 3.953125 0.0664062 4.257812 0.0351562 4.59375 0.0351562 C 5 0.0351562 5.339844 -0.0351562 5.574219 -0.167969 C 5.878906 -0.339844 6.015625 -0.675781 6.117188 -1.015625 C 6.183594 -1.316406 6.21875 -1.65625 6.21875 -1.992188 C 6.21875 -2.332031 6.25 -2.703125 6.285156 -3.007812 C 6.320312 -3.3125 6.285156 -3.648438 6.285156 -3.953125 C 6.320312 -4.257812 6.351562 -4.5625 6.351562 -4.898438 C 6.351562 -5.203125 6.351562 -5.507812 6.351562 -5.847656 C 6.351562 -6.148438 6.320312 -6.453125 6.320312 -6.792969 C 6.320312 -7.097656 6.386719 -7.398438 6.386719 -7.738281 C 6.386719 -8.042969 6.320312 -8.414062 6.351562 -8.71875 C 6.65625 -8.71875 6.996094 -8.652344 7.300781 -8.652344 C 7.601562 -8.652344 7.941406 -8.617188 8.246094 -8.617188 C 8.550781 -8.617188 8.851562 -8.71875 9.191406 -8.71875 C 9.496094 -8.683594 9.800781 -8.617188 10.136719 -8.617188 C 10.441406 -8.617188 10.746094 -8.582031 11.082031 -8.582031 C 11.386719 -8.582031 11.691406 -8.683594 12.03125 -8.683594 C 12.332031 -8.652344 12.636719 -8.617188 12.941406 -8.617188 C 13.28125 -8.617188 13.550781 -8.582031 13.855469 -8.582031 C 13.886719 -8.277344 13.957031 -8.007812 13.988281 -7.738281 C 13.988281 -7.433594 13.886719 -7.128906 13.886719 -6.859375 C 13.921875 -6.554688 14.023438 -6.285156 14.023438 -5.980469 C 14.058594 -5.675781 14.023438 -5.40625 14.058594 -5.101562 C 14.058594 -4.832031 14.089844 -4.527344 14.089844 -4.222656 C 14.125 -3.953125 14.058594 -3.648438 14.089844 -3.34375 C 14.089844 -3.042969 14.125 -2.738281 14.160156 -2.433594 C 14.160156 -2.128906 14.089844 -1.824219 14.125 -1.519531 C 14.125 -1.183594 14.160156 -0.914062 14.226562 -0.710938 C 14.363281 -0.40625 14.597656 -0.269531 14.867188 -0.167969 C 15.070312 -0.0664062 15.339844 0.0351562 15.644531 0.0351562 C 15.949219 0.0664062 16.21875 0 16.457031 -0.0664062 C 16.761719 -0.167969 16.929688 -0.304688 17.066406 -0.539062 C 17.199219 -0.742188 17.234375 -0.980469 17.234375 -1.316406 C 17.300781 -1.722656 17.300781 -2.09375 17.300781 -2.5 C 17.300781 -2.804688 17.367188 -3.144531 17.367188 -3.445312 C 17.367188 -3.75 17.402344 -4.089844 17.402344 -4.394531 C 17.402344 -4.695312 17.367188 -5 17.367188 -5.339844 C 17.367188 -5.644531 17.300781 -5.949219 17.300781 -6.25 C 17.300781 -6.589844 17.367188 -6.894531 17.367188 -7.199219 C 17.367188 -7.535156 17.335938 -7.839844 17.335938 -8.144531 C 17.335938 -8.449219 17.4375 -8.785156 17.4375 -9.089844 C 17.4375 -9.394531 17.4375 -9.699219 17.4375 -10.035156 C 17.4375 -10.339844 17.335938 -10.644531 17.335938 -10.949219 C 17.335938 -11.285156 17.367188 -11.589844 17.367188 -11.894531 C 17.367188 -12.234375 17.335938 -12.535156 17.335938 -12.839844 C 17.335938 -13.144531 17.4375 -13.484375 17.4375 -13.785156 C 17.4375 -14.089844 17.46875 -14.394531 17.46875 -14.734375 C 17.46875 -15.039062 17.4375 -15.339844 17.4375 -15.644531 C 17.4375 -15.984375 17.402344 -16.289062 17.402344 -16.589844 C 17.402344 -16.929688 17.402344 -17.234375 17.402344 -17.539062 C 17.402344 -17.84375 17.402344 -18.179688 17.402344 -18.484375 C 17.402344 -18.71875 17.46875 -19.023438 17.46875 -19.328125 C 17.503906 -19.632812 17.4375 -19.9375 17.402344 -20.207031 C 17.335938 -20.546875 17.167969 -20.816406 16.996094 -20.984375 C 16.761719 -21.222656 16.492188 -21.390625 16.1875 -21.457031 C 15.882812 -21.492188 15.578125 -21.324219 15.273438 -21.253906 C 15.003906 -21.1875 14.664062 -21.152344 14.429688 -21.050781 C 14.125 -20.949219 13.886719 -20.816406 13.753906 -20.511719 C 13.6875 -20.242188 13.71875 -19.902344 13.71875 -19.496094 C 13.71875 -19.195312 13.652344 -18.820312 13.6875 -18.484375 C 13.6875 -18.113281 13.753906 -17.773438 13.753906 -17.503906 C 13.71875 -17.167969 13.820312 -16.863281 13.820312 -16.523438 C 13.820312 -16.21875 13.753906 -15.882812 13.753906 -15.578125 C 13.753906 -15.238281 13.855469 -14.9375 13.855469 -14.597656 C 13.855469 -14.292969 13.785156 -13.957031 13.785156 -13.652344 C 13.785156 -13.3125 13.753906 -13.042969 13.71875 -12.707031 C 13.347656 -12.671875 13.078125 -12.605469 12.808594 -12.605469 C 12.433594 -12.570312 12.132812 -12.605469 11.828125 -12.605469 C 11.558594 -12.605469 11.253906 -12.636719 10.949219 -12.636719 C 10.644531 -12.605469 10.339844 -12.503906 10.035156 -12.503906 C 9.730469 -12.503906 9.429688 -12.46875 9.125 -12.46875 C 8.820312 -12.46875 8.515625 -12.46875 8.210938 -12.46875 C 7.90625 -12.46875 7.601562 -12.433594 7.300781 -12.433594 C 6.996094 -12.433594 6.691406 -12.503906 6.386719 -12.503906 C 6.386719 -12.773438 6.386719 -13.042969 6.386719 -13.28125 Z M 6.386719 -13.28125 "/></g></g></g><g fill="#000000" fill-opacity="1"><g transform="translate(131.99467, 118.38695)"><g><path d="M 6.792969 -3.820312 C 7.097656 -3.785156 7.398438 -3.71875 7.703125 -3.71875 C 8.042969 -3.71875 8.347656 -3.71875 8.652344 -3.71875 C 8.953125 -3.71875 9.257812 -3.75 9.5625 -3.75 C 9.867188 -3.75 10.171875 -3.75 10.476562 -3.75 C 10.78125 -3.785156 11.117188 -3.851562 11.457031 -3.851562 C 11.828125 -3.820312 12.164062 -3.785156 12.46875 -3.785156 C 13.042969 -3.75 13.042969 -3.953125 13.484375 -3.75 C 13.855469 -3.582031 13.617188 -3.414062 13.886719 -3.007812 C 14.023438 -2.804688 14.226562 -2.601562 14.363281 -2.332031 C 14.496094 -2.09375 14.597656 -1.859375 14.699219 -1.589844 C 14.835938 -1.351562 14.96875 -1.082031 15.003906 -0.84375 C 15.105469 -0.472656 15.273438 -0.304688 15.441406 -0.167969 C 15.644531 -0.0351562 15.882812 -0.0351562 16.21875 -0.0351562 C 16.457031 -0.0351562 16.761719 0 17.066406 0 C 17.402344 0 17.671875 -0.0664062 17.910156 -0.101562 C 18.28125 -0.167969 18.519531 -0.269531 18.621094 -0.472656 C 18.71875 -0.675781 18.6875 -0.945312 18.550781 -1.316406 C 18.449219 -1.554688 18.347656 -1.859375 18.214844 -2.164062 C 18.113281 -2.433594 18.078125 -2.769531 17.945312 -3.042969 C 17.84375 -3.34375 17.640625 -3.582031 17.539062 -3.886719 C 17.402344 -4.191406 17.300781 -4.460938 17.167969 -4.765625 C 17.066406 -5.035156 17.03125 -5.371094 16.929688 -5.644531 C 16.792969 -5.949219 16.625 -6.21875 16.523438 -6.488281 C 16.421875 -6.792969 16.253906 -7.0625 16.152344 -7.332031 C 16.050781 -7.601562 15.984375 -7.90625 15.882812 -8.175781 C 15.78125 -8.449219 15.613281 -8.71875 15.511719 -8.988281 C 15.410156 -9.292969 15.273438 -9.5625 15.171875 -9.832031 C 15.070312 -10.105469 15.003906 -10.40625 14.902344 -10.679688 C 14.800781 -10.980469 14.699219 -11.253906 14.597656 -11.523438 C 14.460938 -11.792969 14.363281 -12.0625 14.226562 -12.367188 C 14.125 -12.636719 14.089844 -12.941406 13.988281 -13.210938 C 13.886719 -13.515625 13.6875 -13.753906 13.585938 -14.023438 C 13.484375 -14.292969 13.414062 -14.597656 13.3125 -14.867188 C 13.179688 -15.171875 13.144531 -15.441406 13.042969 -15.746094 C 12.941406 -16.015625 12.773438 -16.289062 12.636719 -16.558594 C 12.535156 -16.828125 12.46875 -17.132812 12.367188 -17.402344 C 12.234375 -17.671875 12.132812 -17.945312 12.03125 -18.246094 C 11.929688 -18.519531 11.757812 -18.789062 11.65625 -19.058594 C 11.558594 -19.328125 11.421875 -19.597656 11.320312 -19.871094 C 11.152344 -20.308594 11.117188 -20.648438 10.980469 -20.847656 C 10.710938 -21.253906 10.441406 -21.324219 10.105469 -21.355469 C 9.832031 -21.390625 9.527344 -21.390625 9.089844 -21.355469 C 8.785156 -21.355469 8.617188 -21.324219 8.347656 -21.121094 C 8.210938 -20.984375 7.976562 -20.847656 7.773438 -20.546875 C 7.671875 -20.34375 7.636719 -20.070312 7.5 -19.769531 C 7.398438 -19.53125 7.265625 -19.296875 7.164062 -19.023438 C 7.0625 -18.753906 6.996094 -18.449219 6.894531 -18.144531 C 6.792969 -17.875 6.691406 -17.605469 6.589844 -17.300781 C 6.488281 -17.03125 6.386719 -16.726562 6.285156 -16.457031 C 6.183594 -16.152344 6.046875 -15.882812 5.949219 -15.578125 C 5.847656 -15.308594 5.847656 -14.96875 5.746094 -14.699219 C 5.644531 -14.394531 5.472656 -14.160156 5.371094 -13.855469 C 5.273438 -13.585938 5.238281 -13.28125 5.136719 -12.976562 C 5.035156 -12.671875 4.867188 -12.433594 4.765625 -12.132812 C 4.695312 -11.859375 4.59375 -11.558594 4.496094 -11.253906 C 4.394531 -10.980469 4.324219 -10.679688 4.222656 -10.40625 C 4.121094 -10.105469 4.019531 -9.832031 3.917969 -9.527344 C 3.820312 -9.257812 3.75 -8.953125 3.648438 -8.652344 C 3.546875 -8.378906 3.34375 -8.109375 3.242188 -7.839844 C 3.144531 -7.570312 3.175781 -7.230469 3.074219 -6.925781 C 2.972656 -6.65625 2.871094 -6.386719 2.769531 -6.082031 C 2.667969 -5.8125 2.464844 -5.542969 2.367188 -5.273438 C 2.265625 -4.96875 2.265625 -4.664062 2.164062 -4.394531 C 2.0625 -4.089844 1.925781 -3.820312 1.824219 -3.546875 C 1.757812 -3.378906 1.621094 -3.007812 1.453125 -2.601562 C 1.351562 -2.296875 1.25 -1.960938 1.113281 -1.65625 C 0.980469 -1.214844 0.914062 -0.84375 0.914062 -0.675781 C 0.84375 -0.101562 1.046875 0.0351562 1.488281 0.0351562 C 1.789062 0.0664062 2.164062 0 2.601562 0.0351562 C 2.90625 0.0664062 3.3125 0.0664062 3.683594 0 C 4.054688 -0.0664062 4.324219 -0.203125 4.527344 -0.539062 C 4.664062 -0.8125 4.832031 -1.046875 4.933594 -1.316406 C 5.035156 -1.589844 5.136719 -1.859375 5.238281 -2.128906 C 5.339844 -2.398438 5.40625 -2.667969 5.542969 -2.941406 C 5.644531 -3.210938 5.710938 -3.515625 5.847656 -3.785156 C 6.148438 -3.785156 6.488281 -3.820312 6.792969 -3.820312 Z M 7.230469 -8.3125 C 7.332031 -8.617188 7.433594 -8.886719 7.535156 -9.15625 C 7.636719 -9.460938 7.738281 -9.730469 7.839844 -10.035156 C 7.941406 -10.304688 8.042969 -10.578125 8.175781 -10.847656 C 8.277344 -11.152344 8.347656 -11.421875 8.480469 -11.691406 C 8.582031 -11.996094 8.785156 -12.234375 8.886719 -12.503906 C 8.988281 -12.773438 8.988281 -13.109375 9.089844 -13.414062 C 9.191406 -13.6875 9.359375 -13.988281 9.460938 -14.292969 C 9.628906 -13.988281 9.730469 -13.652344 9.867188 -13.414062 C 10.035156 -13.109375 10.238281 -12.875 10.375 -12.605469 C 10.542969 -12.332031 10.644531 -12.03125 10.746094 -11.757812 C 10.882812 -11.488281 10.980469 -11.183594 11.082031 -10.914062 C 11.21875 -10.609375 11.355469 -10.339844 11.457031 -10.035156 C 11.589844 -9.765625 11.757812 -9.496094 11.859375 -9.226562 C 11.996094 -8.921875 12.03125 -8.617188 12.132812 -8.3125 C 12.265625 -8.042969 12.402344 -7.773438 12.535156 -7.46875 C 12.199219 -7.46875 11.929688 -7.433594 11.625 -7.433594 C 11.285156 -7.433594 10.980469 -7.433594 10.679688 -7.433594 C 10.339844 -7.433594 10.035156 -7.5 9.730469 -7.5 C 9.429688 -7.5 9.125 -7.46875 8.785156 -7.46875 C 8.480469 -7.46875 8.175781 -7.46875 7.839844 -7.46875 C 7.535156 -7.46875 7.199219 -7.433594 6.859375 -7.433594 C 6.960938 -7.738281 7.128906 -8.042969 7.230469 -8.3125 Z M 7.230469 -8.3125 "/></g></g></g><g fill="#000000" fill-opacity="1"><g transform="translate(160.278227, 118.38695)"><g><path d="M 6.351562 -11.589844 C 6.351562 -11.894531 6.351562 -12.199219 6.351562 -12.503906 C 6.351562 -12.808594 6.351562 -13.144531 6.351562 -13.449219 C 6.351562 -13.753906 6.421875 -14.058594 6.421875 -14.363281 C 6.421875 -14.664062 6.488281 -15.003906 6.488281 -15.308594 C 6.488281 -15.613281 6.421875 -15.914062 6.421875 -16.21875 C 6.421875 -16.523438 6.386719 -16.828125 6.386719 -17.132812 C 6.386719 -17.46875 6.421875 -17.773438 6.421875 -18.078125 C 6.421875 -18.382812 6.386719 -18.6875 6.386719 -18.992188 C 6.386719 -19.328125 6.488281 -19.632812 6.453125 -19.902344 C 6.421875 -20.273438 6.320312 -20.578125 6.21875 -20.816406 C 6.082031 -21.121094 5.8125 -21.1875 5.472656 -21.253906 C 5.238281 -21.289062 4.933594 -21.355469 4.5625 -21.355469 C 4.222656 -21.355469 3.917969 -21.324219 3.683594 -21.289062 C 3.378906 -21.222656 3.109375 -21.1875 2.941406 -20.847656 C 2.839844 -20.648438 2.769531 -20.375 2.738281 -19.972656 C 2.703125 -19.699219 2.703125 -19.394531 2.703125 -19.058594 C 2.703125 -18.753906 2.769531 -18.484375 2.769531 -18.179688 C 2.769531 -17.875 2.769531 -17.570312 2.769531 -17.265625 C 2.738281 -16.964844 2.738281 -16.660156 2.738281 -16.355469 C 2.738281 -16.050781 2.667969 -15.746094 2.667969 -15.441406 C 2.667969 -15.171875 2.703125 -14.867188 2.703125 -14.5625 C 2.703125 -14.261719 2.738281 -13.957031 2.738281 -13.652344 C 2.738281 -13.347656 2.636719 -13.042969 2.636719 -12.738281 C 2.636719 -12.433594 2.738281 -12.132812 2.738281 -11.828125 C 2.738281 -11.523438 2.703125 -11.21875 2.703125 -10.914062 C 2.703125 -10.609375 2.636719 -10.339844 2.636719 -10.035156 C 2.636719 -9.730469 2.703125 -9.429688 2.703125 -9.125 C 2.703125 -8.820312 2.601562 -8.515625 2.601562 -8.210938 C 2.601562 -7.90625 2.601562 -7.636719 2.601562 -7.332031 C 2.601562 -7.027344 2.667969 -6.722656 2.667969 -6.421875 C 2.667969 -6.117188 2.601562 -5.8125 2.601562 -5.507812 C 2.601562 -5.238281 2.667969 -4.933594 2.667969 -4.628906 C 2.667969 -4.324219 2.636719 -4.019531 2.636719 -3.71875 C 2.636719 -3.445312 2.566406 -3.144531 2.566406 -2.839844 C 2.566406 -2.566406 2.566406 -2.265625 2.535156 -1.890625 C 2.5 -1.621094 2.5 -1.316406 2.5 -0.945312 C 2.464844 -0.507812 2.667969 -0.203125 2.972656 -0.0664062 C 3.3125 0.136719 3.785156 0.0664062 3.988281 0.0664062 C 4.292969 0.0664062 4.628906 0.0351562 4.933594 0.0351562 C 5.273438 0 5.609375 -0.0351562 5.878906 -0.101562 C 6.21875 -0.238281 6.421875 -0.40625 6.386719 -0.742188 C 6.351562 -1.015625 6.386719 -1.285156 6.386719 -1.554688 C 6.386719 -1.824219 6.351562 -2.09375 6.351562 -2.332031 C 6.351562 -2.601562 6.453125 -2.871094 6.453125 -3.144531 C 6.453125 -3.445312 6.421875 -3.75 6.421875 -4.054688 C 6.421875 -4.394531 6.453125 -4.695312 6.453125 -5 C 6.453125 -5.339844 6.421875 -5.644531 6.421875 -5.949219 C 6.421875 -6.25 6.421875 -6.589844 6.421875 -6.894531 C 6.421875 -7.199219 6.421875 -7.535156 6.421875 -7.839844 C 6.421875 -8.144531 6.421875 -8.480469 6.421875 -8.785156 C 6.421875 -9.089844 6.421875 -9.394531 6.421875 -9.730469 C 6.421875 -10.035156 6.488281 -10.339844 6.488281 -10.679688 C 6.488281 -10.949219 6.351562 -11.285156 6.351562 -11.589844 Z M 6.351562 -11.589844 "/></g></g></g><g fill="#000000" fill-opacity="1"><g transform="translate(178.086601, 118.38695)"><g><path d="M 2.667969 -16.492188 C 2.667969 -16.1875 2.703125 -15.882812 2.667969 -15.542969 C 2.667969 -15.238281 2.738281 -14.9375 2.738281 -14.597656 C 2.738281 -14.328125 2.667969 -13.988281 2.667969 -13.6875 C 2.667969 -13.382812 2.738281 -13.078125 2.738281 -12.738281 C 2.738281 -12.433594 2.703125 -12.132812 2.703125 -11.828125 C 2.703125 -11.488281 2.601562 -11.183594 2.601562 -10.882812 C 2.601562 -10.578125 2.636719 -10.238281 2.636719 -9.933594 C 2.636719 -9.628906 2.636719 -9.328125 2.636719 -9.023438 C 2.636719 -8.71875 2.601562 -8.378906 2.601562 -8.078125 C 2.566406 -7.773438 2.667969 -7.46875 2.667969 -7.164062 C 2.667969 -6.824219 2.703125 -6.523438 2.703125 -6.25 C 2.703125 -5.914062 2.667969 -5.609375 2.667969 -5.304688 C 2.667969 -4.96875 2.667969 -4.664062 2.667969 -4.394531 C 2.703125 -4.019531 2.636719 -3.71875 2.636719 -3.445312 C 2.667969 -3.175781 2.703125 -2.839844 2.703125 -2.5 C 2.703125 -2.164062 2.636719 -1.824219 2.636719 -1.519531 C 2.636719 -1.148438 2.636719 -0.8125 2.636719 -0.539062 C 2.601562 -0.238281 2.871094 0.0351562 3.210938 0.0351562 C 3.480469 0.0351562 3.820312 0 4.15625 0 C 4.496094 0 4.796875 0 5.136719 0 C 5.472656 0 5.8125 -0.0351562 6.117188 -0.0351562 C 6.421875 0 6.722656 0 7.027344 0.0351562 C 7.332031 0.0351562 7.671875 0 7.976562 0 C 8.277344 0 8.582031 0.0664062 8.886719 0.0664062 C 9.226562 0.0664062 9.527344 0 9.832031 0 C 10.136719 0 10.441406 0 10.78125 0 C 11.082031 -0.0351562 11.386719 0.0351562 11.691406 0 C 11.996094 0 12.332031 -0.0664062 12.636719 -0.101562 C 12.976562 -0.101562 13.3125 -0.0351562 13.617188 -0.0351562 C 13.957031 -0.0664062 14.292969 -0.0351562 14.597656 -0.101562 C 14.902344 -0.136719 15.207031 -0.269531 15.542969 -0.40625 C 15.746094 -0.472656 15.914062 -0.710938 15.949219 -1.015625 C 16.015625 -1.25 15.984375 -1.554688 15.984375 -1.789062 C 15.984375 -1.992188 15.949219 -2.367188 15.949219 -2.667969 C 15.949219 -3.042969 15.882812 -3.378906 15.644531 -3.480469 C 15.375 -3.617188 15.039062 -3.71875 14.664062 -3.75 C 14.328125 -3.785156 13.988281 -3.820312 13.652344 -3.820312 C 13.347656 -3.820312 13.078125 -3.71875 12.808594 -3.71875 C 12.535156 -3.71875 12.265625 -3.785156 11.960938 -3.785156 C 11.691406 -3.75 11.421875 -3.683594 11.152344 -3.683594 C 10.882812 -3.683594 10.609375 -3.648438 10.304688 -3.648438 C 10.035156 -3.648438 9.765625 -3.71875 9.496094 -3.71875 C 9.226562 -3.71875 8.921875 -3.71875 8.652344 -3.71875 C 8.378906 -3.71875 8.078125 -3.75 7.804688 -3.75 C 7.5 -3.75 7.230469 -3.683594 6.996094 -3.71875 C 6.488281 -3.71875 6.453125 -3.414062 6.21875 -3.75 C 5.914062 -4.191406 6.148438 -4.15625 6.148438 -4.765625 C 6.183594 -5.070312 6.25 -5.441406 6.285156 -5.8125 C 6.285156 -6.148438 6.285156 -6.523438 6.285156 -6.859375 C 6.285156 -7.164062 6.320312 -7.46875 6.351562 -7.804688 C 6.351562 -8.109375 6.285156 -8.414062 6.285156 -8.71875 C 6.285156 -9.054688 6.320312 -9.359375 6.351562 -9.664062 C 6.351562 -9.96875 6.320312 -10.304688 6.320312 -10.609375 C 6.320312 -10.914062 6.421875 -11.21875 6.453125 -11.558594 C 6.453125 -11.859375 6.320312 -12.164062 6.351562 -12.46875 C 6.351562 -12.808594 6.421875 -13.109375 6.421875 -13.414062 C 6.421875 -13.71875 6.453125 -14.058594 6.453125 -14.363281 C 6.453125 -14.664062 6.421875 -14.96875 6.421875 -15.308594 C 6.421875 -15.613281 6.453125 -15.914062 6.453125 -16.21875 C 6.453125 -16.558594 6.488281 -16.863281 6.488281 -17.167969 C 6.488281 -17.46875 6.453125 -17.808594 6.453125 -18.113281 C 6.453125 -18.382812 6.523438 -18.652344 6.523438 -18.921875 C 6.523438 -19.195312 6.523438 -19.464844 6.523438 -19.734375 C 6.554688 -20.003906 6.453125 -20.273438 6.453125 -20.546875 C 6.421875 -20.847656 6.25 -20.984375 5.980469 -21.085938 C 5.746094 -21.1875 5.472656 -21.324219 5.203125 -21.324219 C 4.898438 -21.355469 4.59375 -21.289062 4.425781 -21.253906 C 4.15625 -21.222656 3.71875 -21.289062 3.34375 -21.152344 C 3.042969 -21.085938 2.804688 -20.917969 2.769531 -20.445312 C 2.738281 -20.140625 2.703125 -19.800781 2.738281 -19.429688 C 2.738281 -19.09375 2.738281 -18.753906 2.738281 -18.417969 C 2.738281 -18.078125 2.703125 -17.707031 2.703125 -17.402344 C 2.703125 -17.167969 2.703125 -16.863281 2.667969 -16.492188 Z M 2.667969 -16.492188 "/></g></g></g><g fill="#000000" fill-opacity="1"><g transform="translate(203.565508, 118.38695)"><g><path d="M 6.351562 -11.589844 C 6.351562 -11.894531 6.351562 -12.199219 6.351562 -12.503906 C 6.351562 -12.808594 6.351562 -13.144531 6.351562 -13.449219 C 6.351562 -13.753906 6.421875 -14.058594 6.421875 -14.363281 C 6.421875 -14.664062 6.488281 -15.003906 6.488281 -15.308594 C 6.488281 -15.613281 6.421875 -15.914062 6.421875 -16.21875 C 6.421875 -16.523438 6.386719 -16.828125 6.386719 -17.132812 C 6.386719 -17.46875 6.421875 -17.773438 6.421875 -18.078125 C 6.421875 -18.382812 6.386719 -18.6875 6.386719 -18.992188 C 6.386719 -19.328125 6.488281 -19.632812 6.453125 -19.902344 C 6.421875 -20.273438 6.320312 -20.578125 6.21875 -20.816406 C 6.082031 -21.121094 5.8125 -21.1875 5.472656 -21.253906 C 5.238281 -21.289062 4.933594 -21.355469 4.5625 -21.355469 C 4.222656 -21.355469 3.917969 -21.324219 3.683594 -21.289062 C 3.378906 -21.222656 3.109375 -21.1875 2.941406 -20.847656 C 2.839844 -20.648438 2.769531 -20.375 2.738281 -19.972656 C 2.703125 -19.699219 2.703125 -19.394531 2.703125 -19.058594 C 2.703125 -18.753906 2.769531 -18.484375 2.769531 -18.179688 C 2.769531 -17.875 2.769531 -17.570312 2.769531 -17.265625 C 2.738281 -16.964844 2.738281 -16.660156 2.738281 -16.355469 C 2.738281 -16.050781 2.667969 -15.746094 2.667969 -15.441406 C 2.667969 -15.171875 2.703125 -14.867188 2.703125 -14.5625 C 2.703125 -14.261719 2.738281 -13.957031 2.738281 -13.652344 C 2.738281 -13.347656 2.636719 -13.042969 2.636719 -12.738281 C 2.636719 -12.433594 2.738281 -12.132812 2.738281 -11.828125 C 2.738281 -11.523438 2.703125 -11.21875 2.703125 -10.914062 C 2.703125 -10.609375 2.636719 -10.339844 2.636719 -10.035156 C 2.636719 -9.730469 2.703125 -9.429688 2.703125 -9.125 C 2.703125 -8.820312 2.601562 -8.515625 2.601562 -8.210938 C 2.601562 -7.90625 2.601562 -7.636719 2.601562 -7.332031 C 2.601562 -7.027344 2.667969 -6.722656 2.667969 -6.421875 C 2.667969 -6.117188 2.601562 -5.8125 2.601562 -5.507812 C 2.601562 -5.238281 2.667969 -4.933594 2.667969 -4.628906 C 2.667969 -4.324219 2.636719 -4.019531 2.636719 -3.71875 C 2.636719 -3.445312 2.566406 -3.144531 2.566406 -2.839844 C 2.566406 -2.566406 2.566406 -2.265625 2.535156 -1.890625 C 2.5 -1.621094 2.5 -1.316406 2.5 -0.945312 C 2.464844 -0.507812 2.667969 -0.203125 2.972656 -0.0664062 C 3.3125 0.136719 3.785156 0.0664062 3.988281 0.0664062 C 4.292969 0.0664062 4.628906 0.0351562 4.933594 0.0351562 C 5.273438 0 5.609375 -0.0351562 5.878906 -0.101562 C 6.21875 -0.238281 6.421875 -0.40625 6.386719 -0.742188 C 6.351562 -1.015625 6.386719 -1.285156 6.386719 -1.554688 C 6.386719 -1.824219 6.351562 -2.09375 6.351562 -2.332031 C 6.351562 -2.601562 6.453125 -2.871094 6.453125 -3.144531 C 6.453125 -3.445312 6.421875 -3.75 6.421875 -4.054688 C 6.421875 -4.394531 6.453125 -4.695312 6.453125 -5 C 6.453125 -5.339844 6.421875 -5.644531 6.421875 -5.949219 C 6.421875 -6.25 6.421875 -6.589844 6.421875 -6.894531 C 6.421875 -7.199219 6.421875 -7.535156 6.421875 -7.839844 C 6.421875 -8.144531 6.421875 -8.480469 6.421875 -8.785156 C 6.421875 -9.089844 6.421875 -9.394531 6.421875 -9.730469 C 6.421875 -10.035156 6.488281 -10.339844 6.488281 -10.679688 C 6.488281 -10.949219 6.351562 -11.285156 6.351562 -11.589844 Z M 6.351562 -11.589844 "/></g></g></g><g fill="#000000" fill-opacity="1"><g transform="translate(221.373882, 118.38695)"><g><path d="M 6.523438 -12.433594 C 6.65625 -12.433594 6.894531 -12.097656 7.164062 -11.65625 C 7.300781 -11.421875 7.535156 -11.152344 7.703125 -10.847656 C 7.875 -10.578125 8.007812 -10.273438 8.144531 -9.96875 C 8.3125 -9.664062 8.414062 -9.328125 8.550781 -9.089844 C 8.71875 -8.820312 8.921875 -8.582031 9.089844 -8.3125 C 9.226562 -8.042969 9.394531 -7.773438 9.5625 -7.5 C 9.730469 -7.265625 9.832031 -6.960938 10.003906 -6.722656 C 10.171875 -6.453125 10.441406 -6.25 10.578125 -5.980469 C 10.746094 -5.710938 10.949219 -5.472656 11.117188 -5.203125 C 11.285156 -4.96875 11.421875 -4.695312 11.589844 -4.425781 C 11.792969 -4.15625 11.960938 -3.917969 12.132812 -3.648438 C 12.300781 -3.378906 12.402344 -3.109375 12.570312 -2.839844 C 12.738281 -2.566406 12.941406 -2.332031 13.109375 -2.0625 C 13.28125 -1.789062 13.414062 -1.488281 13.585938 -1.214844 C 13.785156 -0.980469 14.023438 -0.742188 14.261719 -0.539062 C 14.496094 -0.371094 14.765625 -0.203125 15.070312 -0.101562 C 15.375 0 15.679688 0 16.050781 0 C 16.421875 0 16.691406 0 16.894531 -0.0351562 C 17.265625 -0.136719 17.367188 -0.339844 17.4375 -0.640625 C 17.46875 -0.878906 17.46875 -1.148438 17.503906 -1.519531 C 17.503906 -1.824219 17.46875 -2.128906 17.503906 -2.433594 C 17.503906 -2.738281 17.570312 -3.042969 17.605469 -3.34375 C 17.605469 -3.648438 17.539062 -3.953125 17.539062 -4.257812 C 17.539062 -4.5625 17.570312 -4.867188 17.570312 -5.171875 C 17.570312 -5.472656 17.640625 -5.777344 17.640625 -6.082031 C 17.640625 -6.386719 17.570312 -6.691406 17.605469 -7.027344 C 17.605469 -7.332031 17.671875 -7.636719 17.671875 -7.941406 C 17.671875 -8.246094 17.707031 -8.550781 17.707031 -8.851562 C 17.707031 -9.15625 17.640625 -9.460938 17.640625 -9.765625 C 17.640625 -10.070312 17.742188 -10.375 17.742188 -10.679688 C 17.742188 -11.015625 17.742188 -11.320312 17.742188 -11.625 C 17.773438 -11.929688 17.707031 -12.234375 17.707031 -12.535156 C 17.707031 -12.839844 17.707031 -13.144531 17.707031 -13.449219 C 17.707031 -13.753906 17.773438 -14.058594 17.773438 -14.363281 C 17.773438 -14.664062 17.808594 -14.96875 17.808594 -15.238281 C 17.808594 -15.578125 17.742188 -15.882812 17.742188 -16.152344 C 17.742188 -16.492188 17.84375 -16.792969 17.84375 -17.097656 C 17.84375 -17.402344 17.808594 -17.707031 17.808594 -18.011719 C 17.808594 -18.316406 17.808594 -18.621094 17.808594 -18.921875 C 17.808594 -19.261719 17.875 -19.53125 17.84375 -19.800781 C 17.808594 -20.140625 17.773438 -20.445312 17.671875 -20.679688 C 17.539062 -20.984375 17.335938 -21.1875 17.03125 -21.289062 C 16.792969 -21.390625 16.492188 -21.324219 16.152344 -21.324219 C 15.882812 -21.289062 15.578125 -21.289062 15.238281 -21.222656 C 15.003906 -21.1875 14.734375 -21.050781 14.429688 -20.949219 C 14.429688 -20.679688 14.363281 -20.445312 14.363281 -20.105469 C 14.328125 -19.835938 14.363281 -19.53125 14.363281 -19.226562 C 14.363281 -18.921875 14.292969 -18.621094 14.292969 -18.316406 C 14.292969 -18.011719 14.363281 -17.707031 14.363281 -17.402344 C 14.363281 -17.132812 14.292969 -16.828125 14.292969 -16.523438 C 14.292969 -16.21875 14.328125 -15.914062 14.328125 -15.613281 C 14.328125 -15.308594 14.226562 -15.003906 14.226562 -14.699219 C 14.226562 -14.429688 14.328125 -14.125 14.328125 -13.820312 C 14.328125 -13.515625 14.261719 -13.210938 14.261719 -12.910156 C 14.261719 -12.605469 14.226562 -12.300781 14.226562 -12.03125 C 14.226562 -11.726562 14.261719 -11.421875 14.261719 -11.117188 C 14.261719 -10.8125 14.226562 -10.507812 14.226562 -10.238281 C 14.191406 -9.902344 14.160156 -9.597656 14.160156 -9.359375 C 14.125 -8.785156 14.125 -8.449219 14.089844 -8.480469 C 13.785156 -8.515625 13.550781 -8.820312 13.3125 -9.15625 C 13.109375 -9.496094 12.941406 -9.902344 12.808594 -10.105469 C 12.636719 -10.339844 12.402344 -10.578125 12.265625 -10.8125 C 12.097656 -11.082031 11.929688 -11.355469 11.757812 -11.625 C 11.589844 -11.859375 11.523438 -12.164062 11.355469 -12.433594 C 11.183594 -12.707031 10.949219 -12.910156 10.78125 -13.179688 C 10.644531 -13.449219 10.476562 -13.6875 10.304688 -13.957031 C 10.136719 -14.226562 10.003906 -14.496094 9.832031 -14.765625 C 9.664062 -15.039062 9.527344 -15.308594 9.394531 -15.578125 C 9.226562 -15.816406 9.054688 -16.085938 8.886719 -16.355469 C 8.71875 -16.625 8.617188 -16.894531 8.449219 -17.167969 C 8.3125 -17.4375 8.078125 -17.640625 7.90625 -17.910156 C 7.738281 -18.144531 7.636719 -18.449219 7.46875 -18.6875 C 7.300781 -18.957031 7.097656 -19.195312 6.925781 -19.464844 C 6.792969 -19.734375 6.625 -20.003906 6.488281 -20.242188 C 6.285156 -20.613281 6.117188 -20.816406 5.914062 -21.019531 C 5.675781 -21.222656 5.441406 -21.289062 5.070312 -21.324219 C 4.832031 -21.355469 4.496094 -21.355469 4.121094 -21.324219 C 3.582031 -21.355469 3.277344 -21.355469 3.074219 -21.355469 C 2.667969 -21.324219 2.636719 -21.1875 2.636719 -20.578125 C 2.636719 -20.273438 2.703125 -19.972656 2.703125 -19.667969 C 2.703125 -19.363281 2.703125 -19.058594 2.703125 -18.753906 C 2.703125 -18.449219 2.601562 -18.144531 2.601562 -17.84375 C 2.601562 -17.539062 2.636719 -17.234375 2.636719 -16.929688 C 2.636719 -16.625 2.601562 -16.320312 2.636719 -16.015625 C 2.636719 -15.714844 2.667969 -15.410156 2.667969 -15.105469 C 2.667969 -14.800781 2.703125 -14.496094 2.703125 -14.191406 C 2.703125 -13.886719 2.667969 -13.585938 2.667969 -13.28125 C 2.667969 -12.976562 2.601562 -12.671875 2.601562 -12.402344 C 2.636719 -12.097656 2.703125 -11.792969 2.703125 -11.488281 C 2.703125 -11.183594 2.738281 -10.882812 2.738281 -10.578125 C 2.738281 -10.273438 2.703125 -9.96875 2.703125 -9.664062 C 2.703125 -9.359375 2.703125 -9.054688 2.703125 -8.753906 C 2.703125 -8.480469 2.738281 -8.144531 2.738281 -7.839844 C 2.738281 -7.535156 2.703125 -7.230469 2.703125 -6.894531 C 2.703125 -6.589844 2.703125 -6.285156 2.703125 -5.949219 C 2.703125 -5.644531 2.636719 -5.339844 2.636719 -5 C 2.636719 -4.695312 2.703125 -4.394531 2.703125 -4.089844 C 2.703125 -3.75 2.667969 -3.445312 2.636719 -3.144531 C 2.636719 -2.839844 2.667969 -2.5 2.667969 -2.195312 C 2.667969 -1.890625 2.636719 -1.554688 2.636719 -1.285156 C 2.636719 -0.878906 2.703125 -0.609375 2.839844 -0.40625 C 2.972656 -0.167969 3.210938 0 3.546875 0.0664062 C 3.785156 0.136719 4.089844 0.167969 4.425781 0.167969 C 4.796875 0.167969 5.101562 0.136719 5.371094 0.0664062 C 5.710938 0 5.980469 -0.136719 6.148438 -0.40625 C 6.285156 -0.609375 6.320312 -0.914062 6.351562 -1.285156 C 6.351562 -1.519531 6.351562 -1.824219 6.320312 -2.128906 C 6.320312 -2.433594 6.320312 -2.703125 6.320312 -3.007812 C 6.285156 -3.3125 6.285156 -3.617188 6.285156 -3.851562 C 6.285156 -4.191406 6.285156 -4.527344 6.285156 -4.832031 C 6.25 -5.171875 6.25 -5.472656 6.25 -5.777344 C 6.25 -6.117188 6.25 -6.453125 6.25 -6.757812 C 6.25 -7.097656 6.285156 -7.398438 6.285156 -7.738281 C 6.285156 -8.042969 6.351562 -8.378906 6.351562 -8.683594 C 6.351562 -9.023438 6.285156 -9.328125 6.285156 -9.664062 C 6.285156 -9.96875 6.285156 -10.304688 6.285156 -10.644531 C 6.285156 -10.949219 6.285156 -11.253906 6.25 -11.625 C 6.285156 -11.996094 6.148438 -12.503906 6.523438 -12.433594 Z M 6.523438 -12.433594 "/></g></g></g><g fill="#000000" fill-opacity="1"><g transform="translate(250.434633, 118.38695)"><g><path d="M 15.410156 -7.398438 C 15.339844 -7.0625 15.273438 -6.757812 15.171875 -6.453125 C 15.070312 -6.148438 14.902344 -5.878906 14.765625 -5.609375 C 14.632812 -5.304688 14.460938 -5.035156 14.292969 -4.796875 C 14.058594 -4.5625 13.886719 -4.257812 13.652344 -4.089844 C 13.382812 -3.886719 13.109375 -3.71875 12.808594 -3.617188 C 12.535156 -3.480469 12.199219 -3.414062 11.894531 -3.34375 C 11.589844 -3.277344 11.253906 -3.210938 10.949219 -3.210938 C 10.609375 -3.210938 10.304688 -3.277344 10.003906 -3.3125 C 9.699219 -3.378906 9.394531 -3.445312 9.089844 -3.582031 C 8.785156 -3.683594 8.515625 -3.851562 8.246094 -4.019531 C 8.007812 -4.222656 7.804688 -4.460938 7.601562 -4.695312 C 7.398438 -4.933594 7.128906 -5.136719 6.960938 -5.40625 C 6.824219 -5.675781 6.691406 -5.949219 6.554688 -6.21875 C 6.421875 -6.523438 6.386719 -6.824219 6.285156 -7.097656 C 6.148438 -7.398438 6.015625 -7.636719 5.914062 -7.941406 C 5.847656 -8.246094 5.710938 -8.515625 5.644531 -8.820312 C 5.574219 -9.125 5.574219 -9.429688 5.542969 -9.730469 C 5.507812 -10.035156 5.40625 -10.339844 5.40625 -10.644531 C 5.40625 -10.949219 5.371094 -11.253906 5.40625 -11.558594 C 5.40625 -11.859375 5.507812 -12.164062 5.542969 -12.46875 C 5.609375 -12.738281 5.644531 -13.042969 5.746094 -13.347656 C 5.8125 -13.652344 5.878906 -13.957031 5.980469 -14.226562 C 6.082031 -14.53125 6.25 -14.765625 6.386719 -15.070312 C 6.523438 -15.339844 6.554688 -15.644531 6.722656 -15.914062 C 6.894531 -16.152344 7.097656 -16.390625 7.300781 -16.589844 C 7.5 -16.828125 7.773438 -16.996094 8.007812 -17.167969 C 8.246094 -17.367188 8.449219 -17.605469 8.71875 -17.707031 C 8.988281 -17.84375 9.292969 -17.945312 9.597656 -18.011719 C 9.867188 -18.078125 10.171875 -18.113281 10.476562 -18.144531 C 10.78125 -18.144531 11.082031 -18.179688 11.386719 -18.113281 C 11.691406 -18.078125 11.996094 -18.042969 12.265625 -17.945312 C 12.570312 -17.84375 12.808594 -17.640625 13.078125 -17.503906 C 13.347656 -17.367188 13.652344 -17.300781 13.921875 -17.132812 C 14.191406 -16.964844 14.394531 -16.726562 14.632812 -16.523438 C 14.902344 -16.320312 15.171875 -16.1875 15.441406 -16.050781 C 15.746094 -15.847656 15.984375 -15.613281 16.253906 -15.578125 C 16.558594 -15.511719 16.828125 -15.644531 17.132812 -15.816406 C 17.335938 -15.949219 17.605469 -16.117188 17.84375 -16.421875 C 18.042969 -16.691406 18.179688 -16.964844 18.246094 -17.199219 C 18.382812 -17.503906 18.417969 -17.773438 18.347656 -18.042969 C 18.28125 -18.316406 18.113281 -18.550781 17.875 -18.789062 C 17.671875 -19.023438 17.46875 -19.226562 17.265625 -19.429688 C 17.03125 -19.632812 16.726562 -19.734375 16.492188 -19.902344 C 16.253906 -20.070312 16.050781 -20.308594 15.816406 -20.445312 C 15.542969 -20.613281 15.273438 -20.679688 15.003906 -20.816406 C 14.734375 -20.949219 14.496094 -21.121094 14.226562 -21.222656 C 13.921875 -21.324219 13.652344 -21.390625 13.347656 -21.457031 C 13.078125 -21.523438 12.773438 -21.558594 12.503906 -21.59375 C 12.199219 -21.625 11.894531 -21.660156 11.625 -21.695312 C 11.320312 -21.695312 11.015625 -21.660156 10.746094 -21.660156 C 10.441406 -21.660156 10.136719 -21.726562 9.832031 -21.695312 C 9.5625 -21.660156 9.257812 -21.523438 8.988281 -21.457031 C 8.683594 -21.390625 8.378906 -21.355469 8.078125 -21.253906 C 7.804688 -21.1875 7.46875 -21.1875 7.199219 -21.085938 C 6.894531 -20.984375 6.65625 -20.75 6.421875 -20.613281 C 6.148438 -20.476562 5.878906 -20.34375 5.609375 -20.171875 C 5.371094 -20.003906 5.101562 -19.835938 4.898438 -19.632812 C 4.664062 -19.429688 4.496094 -19.195312 4.292969 -18.957031 C 4.089844 -18.71875 3.953125 -18.449219 3.785156 -18.179688 C 3.617188 -17.945312 3.414062 -17.707031 3.242188 -17.4375 C 3.109375 -17.167969 3.007812 -16.894531 2.871094 -16.589844 C 2.769531 -16.320312 2.769531 -16.015625 2.667969 -15.714844 C 2.601562 -15.441406 2.535156 -15.140625 2.464844 -14.867188 C 2.398438 -14.5625 2.265625 -14.292969 2.195312 -13.988281 C 2.128906 -13.6875 2.09375 -13.414062 2.0625 -13.109375 C 1.992188 -12.808594 1.992188 -12.503906 1.960938 -12.234375 C 1.925781 -11.929688 1.925781 -11.625 1.925781 -11.320312 C 1.890625 -11.015625 1.859375 -10.710938 1.859375 -10.441406 C 1.859375 -10.136719 1.789062 -9.832031 1.824219 -9.527344 C 1.824219 -9.226562 1.925781 -8.921875 1.960938 -8.652344 C 1.992188 -8.347656 2.0625 -8.042969 2.128906 -7.773438 C 2.164062 -7.46875 2.230469 -7.164062 2.296875 -6.894531 C 2.367188 -6.589844 2.464844 -6.320312 2.566406 -6.015625 C 2.636719 -5.746094 2.636719 -5.40625 2.738281 -5.136719 C 2.839844 -4.867188 3.042969 -4.628906 3.175781 -4.324219 C 3.3125 -4.054688 3.378906 -3.75 3.546875 -3.515625 C 3.683594 -3.242188 3.886719 -3.007812 4.054688 -2.769531 C 4.222656 -2.5 4.394531 -2.265625 4.628906 -2.027344 C 4.832031 -1.824219 5.070312 -1.621094 5.304688 -1.453125 C 5.542969 -1.25 5.746094 -1.046875 6.015625 -0.878906 C 6.25 -0.710938 6.488281 -0.507812 6.757812 -0.371094 C 7.027344 -0.238281 7.332031 -0.136719 7.636719 -0.0351562 C 7.90625 0.0664062 8.175781 0.167969 8.480469 0.238281 C 8.785156 0.304688 9.089844 0.371094 9.394531 0.40625 C 9.664062 0.4375 9.96875 0.40625 10.273438 0.4375 C 10.578125 0.4375 10.882812 0.472656 11.152344 0.4375 C 11.457031 0.4375 11.757812 0.304688 12.03125 0.269531 C 12.332031 0.203125 12.636719 0.238281 12.941406 0.167969 C 13.210938 0.0664062 13.515625 0 13.785156 -0.101562 C 14.058594 -0.203125 14.292969 -0.40625 14.5625 -0.539062 C 14.835938 -0.675781 15.140625 -0.742188 15.375 -0.914062 C 15.644531 -1.046875 15.882812 -1.214844 16.117188 -1.386719 C 16.355469 -1.589844 16.523438 -1.824219 16.726562 -2.027344 C 16.964844 -2.230469 17.199219 -2.398438 17.402344 -2.636719 C 17.605469 -2.871094 17.808594 -3.074219 17.976562 -3.3125 C 18.144531 -3.546875 18.214844 -3.851562 18.382812 -4.121094 C 18.519531 -4.394531 18.753906 -4.59375 18.890625 -4.867188 C 18.992188 -5.136719 18.992188 -5.441406 19.09375 -5.746094 C 19.195312 -6.015625 19.296875 -6.285156 19.363281 -6.589844 C 19.429688 -6.859375 19.464844 -7.164062 19.496094 -7.46875 C 19.566406 -7.738281 19.632812 -8.042969 19.667969 -8.347656 C 19.667969 -8.617188 19.667969 -8.921875 19.667969 -9.226562 C 19.667969 -9.527344 19.699219 -9.832031 19.632812 -10.105469 C 19.566406 -10.40625 19.496094 -10.679688 19.363281 -10.949219 C 19.195312 -11.183594 18.957031 -11.355469 18.71875 -11.523438 C 18.484375 -11.65625 18.214844 -11.792969 17.910156 -11.828125 C 17.605469 -11.828125 17.300781 -11.792969 16.996094 -11.828125 C 16.726562 -11.828125 16.421875 -11.828125 16.117188 -11.828125 C 15.847656 -11.828125 15.542969 -11.859375 15.273438 -11.859375 C 14.96875 -11.859375 14.664062 -11.859375 14.394531 -11.859375 C 14.089844 -11.894531 13.785156 -11.960938 13.515625 -11.960938 C 13.210938 -11.960938 12.910156 -11.996094 12.605469 -11.996094 C 12.332031 -11.996094 12.03125 -11.929688 11.726562 -11.929688 C 11.457031 -11.929688 11.152344 -11.859375 10.847656 -11.859375 C 10.578125 -11.828125 10.273438 -11.894531 9.96875 -11.859375 C 9.730469 -11.859375 9.597656 -11.558594 9.496094 -11.21875 C 9.429688 -10.914062 9.257812 -10.609375 9.257812 -10.339844 C 9.226562 -10.070312 9.226562 -9.730469 9.257812 -9.460938 C 9.328125 -9.15625 9.527344 -8.953125 9.765625 -8.753906 C 10.003906 -8.582031 10.273438 -8.480469 10.609375 -8.449219 C 10.914062 -8.414062 11.253906 -8.449219 11.558594 -8.449219 C 11.929688 -8.414062 12.265625 -8.3125 12.570312 -8.3125 C 12.910156 -8.277344 13.246094 -8.277344 13.585938 -8.277344 C 13.886719 -8.246094 14.226562 -8.277344 14.597656 -8.277344 C 14.902344 -8.277344 15.238281 -8.347656 15.644531 -8.347656 C 15.578125 -8.007812 15.476562 -7.671875 15.410156 -7.398438 Z M 15.410156 -7.398438 "/></g></g></g></svg>