<svg viewBox="56.1443 162.2535 907.0998 244.9346" width="5000" height="1350.0973101305942" xmlns="http://www.w3.org/2000/svg" xmlns:xlink="http://www.w3.org/1999/xlink" preserveAspectRatio="none"><defs></defs><style>.aLgOaV3zRcolors-0 {fill:#6096B4;fill-opacity:1;}.aLgOaV3zRcolors-1 {fill:#E66A2C;fill-opacity:1;}.aLgOaV3zRcolors-2 {fill:#F094A7;fill-opacity:1;}.aLgOaV3zRcolors-3 {fill:#F3B340;fill-opacity:1;}.aLgOaV3zRcolors-4 {fill:#E66A2C;fill-opacity:1;}.aLgOaV3zRcolors-5 {fill:#F094A7;fill-opacity:1;}.aLgOaV3zRcolors-6 {fill:#F3B340;fill-opacity:1;}.aLgOaV3zRcolors-7 {fill:#E66A2C;fill-opacity:1;}.companyName {fill:#364C63;fill-opacity:1;}.icon3-str {stroke:#F094A7;stroke-opacity:1;}</style><g opacity="1" transform="rotate(0 56.1443 366.2606)">
<svg width="907.0998" height="40.9275" x="56.1443" y="366.2606" version="1.1" preserveAspectRatio="none" viewBox="1.1523 -26.4844 599.5352 27.050800000000002">
  <g transform="matrix(1 0 0 1 0 0)" class="companyName"><path id="id-D6z1nYkh17" d="M12.32-26.19L12.32-25.16L8.28-24.65L8.28-1.68L13.44-1.68Q17.60-1.68 19.55-2.07L19.55-2.07L20.76-7.52L22.03-7.52L21.68 0L1.15 0L1.15-1.04L4.51-1.56L4.51-24.65L1.15-25.16L1.15-26.19L12.32-26.19Z M47.80-1.80L47.80-1.80Q47.80-0.84 47.12-0.14Q46.45 0.57 45.43 0.57L45.43 0.57Q44.42 0.57 43.74-0.14Q43.07-0.84 43.07-1.80L43.07-1.80Q43.07-2.79 43.75-3.48Q44.44-4.16 45.43-4.16L45.43-4.16Q46.43-4.16 47.11-3.48Q47.80-2.79 47.80-1.80Z M72.16-13.13L72.16-13.13Q72.16-6.82 74.27-3.98Q76.38-1.15 80.87-1.15L80.87-1.15Q85.34-1.15 87.47-3.98Q89.60-6.82 89.60-13.13L89.60-13.13Q89.60-19.39 87.48-22.16Q85.36-24.92 80.87-24.92L80.87-24.92Q76.36-24.92 74.26-22.16Q72.16-19.39 72.16-13.13ZM68.07-13.13L68.07-13.13Q68.07-26.48 80.87-26.48L80.87-26.48Q87.20-26.48 90.44-23.10Q93.68-19.71 93.68-13.13L93.68-13.13Q93.68-6.45 90.40-3.03Q87.12 0.39 80.87 0.39L80.87 0.39Q74.64 0.39 71.36-3.02Q68.07-6.43 68.07-13.13Z M118.68-1.80L118.68-1.80Q118.68-0.84 118.01-0.14Q117.34 0.57 116.32 0.57L116.32 0.57Q115.30 0.57 114.63-0.14Q113.96-0.84 113.96-1.80L113.96-1.80Q113.96-2.79 114.64-3.48Q115.32-4.16 116.32-4.16L116.32-4.16Q117.32-4.16 118-3.48Q118.68-2.79 118.68-1.80Z M145.33-5L145.33-24.65L141.97-25.16L141.97-26.19L152.05-26.19L152.05-25.16L149.08-24.65L149.08-8.44Q149.08-5.82 148.28-3.86Q147.48-1.89 145.85-0.75Q144.21 0.39 142.20 0.39L142.20 0.39Q139.70 0.39 138.16-0.20L138.16-0.20L138.16-4.96L139.45-4.96L140.04-2.25Q140.41-1.80 141.09-1.54Q141.77-1.29 142.59-1.29L142.59-1.29Q145.33-1.29 145.33-5L145.33-5Z M222.04 0L222.04-1.04L225.40-1.56L225.40-24.65L222.04-25.16L222.04-26.19L241.69-26.19L241.69-19.92L240.40-19.92L239.77-24.16Q237.59-24.43 233.45-24.43L233.45-24.43L229.17-24.43L229.17-14.20L236.24-14.20L236.84-17.32L238.09-17.32L238.09-9.28L236.84-9.28L236.24-12.44L229.17-12.44L229.17-1.76L234.32-1.76Q239.36-1.76 240.93-2.07L240.93-2.07L242.04-6.91L243.33-6.91L242.96 0L222.04 0Z M283.88-6.80L283.88-24.65L280.36-25.16L280.36-26.19L289.29-26.19L289.29-25.16L285.93-24.65L285.93 0L284.04 0L267.88-23.55L267.88-1.56L271.40-1.04L271.40 0L262.47 0L262.47-1.04L265.83-1.56L265.83-24.65L262.47-25.16L262.47-26.19L270.40-26.19L283.88-6.80Z M324.45 0L312.36 0L312.36-1.04L316.52-1.56L316.52-24.51L315.52-24.51Q310.58-24.51 308.77-24.12L308.77-24.12L308.24-20.04L306.93-20.04L306.93-26.19L329.98-26.19L329.98-20.04L328.65-20.04L328.12-24.12Q327.54-24.26 325.56-24.37Q323.59-24.47 321.25-24.47L321.25-24.47L320.29-24.47L320.29-1.56L324.45-1.04L324.45 0Z M347.79 0L347.79-1.04L351.15-1.56L351.15-24.65L347.79-25.16L347.79-26.19L367.44-26.19L367.44-19.92L366.15-19.92L365.53-24.16Q363.34-24.43 359.20-24.43L359.20-24.43L354.92-24.43L354.92-14.20L361.99-14.20L362.60-17.32L363.85-17.32L363.85-9.28L362.60-9.28L361.99-12.44L354.92-12.44L354.92-1.76L360.08-1.76Q365.12-1.76 366.68-2.07L366.68-2.07L367.79-6.91L369.08-6.91L368.71 0L347.79 0Z M400.06-11.48L395.36-11.48L395.36-1.56L399.32-1.04L399.32 0L388.48 0L388.48-1.04L391.59-1.56L391.59-24.65L388.23-25.16L388.23-26.19L399.54-26.19Q404.46-26.19 406.80-24.53Q409.14-22.87 409.14-19.20L409.14-19.20Q409.14-16.58 407.72-14.68Q406.29-12.77 403.77-12.03L403.77-12.03L410.86-1.56L413.70-1.04L413.70 0L407.43 0L400.06-11.48ZM405.26-18.93L405.26-18.93Q405.26-21.91 403.80-23.17Q402.35-24.43 398.70-24.43L398.70-24.43L395.36-24.43L395.36-13.24L398.81-13.24Q402.31-13.24 403.78-14.54Q405.26-15.84 405.26-18.93Z M446.51-18.44L446.51-18.44Q446.51-21.66 445.01-23.05Q443.50-24.43 439.95-24.43L439.95-24.43L438.04-24.43L438.04-12.03L440.07-12.03Q443.37-12.03 444.94-13.54Q446.51-15.04 446.51-18.44ZM440.98-10.27L438.04-10.27L438.04-1.56L442.20-1.04L442.20 0L431.16 0L431.16-1.04L434.27-1.56L434.27-24.65L430.91-25.16L430.91-26.19L440.79-26.19Q450.40-26.19 450.40-18.48L450.40-18.48Q450.40-14.45 447.97-12.36Q445.54-10.27 440.98-10.27L440.98-10.27Z M480.99-11.48L476.28-11.48L476.28-1.56L480.25-1.04L480.25 0L469.41 0L469.41-1.04L472.51-1.56L472.51-24.65L469.15-25.16L469.15-26.19L480.46-26.19Q485.38-26.19 487.73-24.53Q490.07-22.87 490.07-19.20L490.07-19.20Q490.07-16.58 488.64-14.68Q487.22-12.77 484.70-12.03L484.70-12.03L491.79-1.56L494.62-1.04L494.62 0L488.35 0L480.99-11.48ZM486.18-18.93L486.18-18.93Q486.18-21.91 484.73-23.17Q483.27-24.43 479.62-24.43L479.62-24.43L476.28-24.43L476.28-13.24L479.74-13.24Q483.23-13.24 484.71-14.54Q486.18-15.84 486.18-18.93Z M519.23-24.65L519.23-1.56L522.59-1.04L522.59 0L512.13 0L512.13-1.04L515.48-1.56L515.48-24.65L512.13-25.16L512.13-26.19L522.59-26.19L522.59-25.16L519.23-24.65Z M542.71-1.00L542.71-7.05L543.98-7.05L544.67-3.52Q545.39-2.60 547.16-1.89Q548.93-1.19 550.64-1.19L550.64-1.19Q553.38-1.19 554.91-2.59Q556.45-3.98 556.45-6.45L556.45-6.45Q556.45-7.85 555.85-8.77Q555.25-9.69 554.29-10.32Q553.32-10.96 552.09-11.40Q550.86-11.84 549.56-12.29Q548.26-12.73 547.03-13.28Q545.80-13.83 544.83-14.67Q543.87-15.51 543.27-16.75Q542.68-17.99 542.68-19.80L542.68-19.80Q542.68-22.93 545.02-24.71Q547.36-26.48 551.52-26.48L551.52-26.48Q554.69-26.48 558.40-25.64L558.40-25.64L558.40-20.20L557.13-20.20L556.45-23.40Q554.45-24.84 551.52-24.84L551.52-24.84Q548.91-24.84 547.43-23.78Q545.96-22.71 545.96-20.84L545.96-20.84Q545.96-19.57 546.55-18.73Q547.15-17.89 548.12-17.29Q549.08-16.70 550.32-16.27Q551.56-15.84 552.86-15.38Q554.16-14.92 555.40-14.35Q556.64-13.77 557.61-12.88Q558.57-11.99 559.17-10.71Q559.77-9.43 559.77-7.56L559.77-7.56Q559.77-3.77 557.44-1.69Q555.12 0.39 550.74 0.39L550.74 0.39Q548.63 0.39 546.50 0.02Q544.38-0.35 542.71-1.00L542.71-1.00Z M579.40 0L579.40-1.04L582.76-1.56L582.76-24.65L579.40-25.16L579.40-26.19L599.05-26.19L599.05-19.92L597.76-19.92L597.13-24.16Q594.95-24.43 590.80-24.43L590.80-24.43L586.53-24.43L586.53-14.20L593.60-14.20L594.20-17.32L595.45-17.32L595.45-9.28L594.20-9.28L593.60-12.44L586.53-12.44L586.53-1.76L591.68-1.76Q596.72-1.76 598.29-2.07L598.29-2.07L599.40-6.91L600.69-6.91L600.32 0L579.40 0Z"/></g>
</svg>
</g><g opacity="1" transform="rotate(0 422.7977 162.2535)">
<svg width="173.7931" height="169.2484" x="422.7977" y="162.2535" version="1.1" preserveAspectRatio="none" viewBox="86.44352722167969 62.78300857543945 165.7563934326172 161.42193603515625">
  <g transform="matrix(1 0 0 1 0 0)" class="aLgOaV3zRcolors-0"><switch><g><g><g enable-background="new    "><g enable-background="new    "><g><g><path d="M251.222,135.877c0.589,3.457,0.943,6.711,0.822,10.219c0.047-2.457,0.134-4.914,0.092-7.371         c-0.037-2.225-0.303-4.473-0.515-6.688c-0.313-3.273-0.931-6.474-1.627-9.685c0.394,2.189,0.898,4.31,0.999,6.541         C251.098,131.219,251.042,133.554,251.222,135.877"></path></g></g></g><g enable-background="new    "><g><path d="M210.096,106.884c-0.68-4.711-7.194-21.963-10.069-27.607        c-0.327-0.642-0.898-2.44-1.386-2.97c-0.452,0.379-20.729,13.922-25.643,15.062c2.743,0.923,5.447,1.962,8.156,2.981        c-7.374,11.935-21.006,19.913-34.685,22.167c-7.397,1.219-15.553,0.8-22.13-3.126c-5.884-3.512-9.208-9.649-8.378-16.516        c0.834-6.895,5.114-13.014,10.365-17.402c0.425-0.62,0.906-1.194,1.453-1.694c0.082-0.075,0.17-0.152,0.254-0.228        c0.084-0.089,0.159-0.185,0.246-0.272c0.454-0.451,0.94-0.847,1.444-1.213c0.065-0.079,0.135-0.155,0.201-0.233        c0.393-0.552,0.836-1.069,1.329-1.544c4.019-4.509,8.893-8.627,14.307-11.506c-12.457,3.531-24.256,9.967-33.175,19.45        c-9.297,9.885-16.333,24.473-11.992,38.165c3.572,11.267,14.069,17.952,25.11,20.522c13.645,3.176,28.359,1.058,41.239-4.118        c15.121-6.077,28.214-16.807,36.865-30.646c2.367,1.591,4.67,3.276,6.984,4.943        C210.459,109.69,210.298,108.284,210.096,106.884z"></path><path d="M241.726,181.57c-1.879,3.132-3.748,6.226-5.927,9.159        c-2.079,2.797-4.35,5.472-6.762,7.985c-4.917,5.123-10.477,9.527-16.51,13.256c-12.322,7.614-26.784,11.861-41.266,12.212        c-11.885,0.288-23.548-2.148-34.525-6.63c18.392,6.924,38.868,6.113,57.286-0.273c17.313-6.005,33.477-16.877,44.473-31.663        c2.513-3.379,4.744-6.975,6.586-10.764C243.989,177.102,242.966,179.395,241.726,181.57"></path><path d="M239.938,102.011c2.239,13.193-1.264,26.405-8.51,37.512        c-7.77,11.912-19.103,21.271-31.334,28.33c-12.955,7.476-27.355,12.637-42.13,14.992c-13.519,2.155-27.854,2.042-40.896-2.5        c-7.197-2.507-13.943-6.461-19.3-11.923c-5.598-5.707-9.296-12.97-10.681-20.835c-1.195-6.786-0.535-13.561,0.436-20.342        c0.852-4.061,1.707-8.087,3.024-12.026c1.299-3.881,2.852-7.755,4.73-11.399c0.98-1.902,2.046-3.747,3.123-5.595        c-7.675,13.615-11.503,30.877-2.284,44.745c8.496,12.779,24.441,18.172,39.136,18.972c19.8,1.078,39.768-5.347,56.318-15.997        c15.742-10.129,31.036-25.818,33.433-45.222c0.493-3.996,0.379-8.059-0.366-12.016c4.386,2.955,8.754,6.11,12.486,9.88        C238.098,99.57,239.348,100.719,239.938,102.011"></path><path d="M249.994,122.352c0.796,4.135,1.618,8.252,1.924,12.458        c0.34,4.676,0.502,9.517-0.28,14.154c-1.144,6.784-3.577,13.306-6.95,19.292c-7.14,12.672-18.208,22.854-30.477,30.479        c-12.905,8.021-27.499,13.491-42.511,15.861c-14.104,2.228-28.997,1.735-42.465-3.332c-6.354-2.391-12.318-5.824-17.44-10.294        c-3.618-3.157-6.673-7.024-9.495-10.89c-2.529-3.464-4.698-7.117-6.733-10.89c-1.711-3.17-3.112-6.573-4.374-9.947        c5.039,11.916,14.508,21.071,26.343,26.18c12.438,5.367,26.435,6.424,39.797,5.104c14.747-1.458,29.231-5.825,42.492-12.402        c12.989-6.442,25.103-15.167,34.43-26.341c10.226-12.249,17.791-28.605,14.146-44.809        C248.938,118.764,249.599,120.524,249.994,122.352"></path></g></g></g></g></g></switch></g>
</svg>
</g></svg>