<svg viewBox="49.9999 222.7605 260 99.072" width="5000" height="1905.2307692307693" xmlns="http://www.w3.org/2000/svg" xmlns:xlink="http://www.w3.org/1999/xlink" preserveAspectRatio="none"><defs></defs><style>.aD6z1nYkhcolor {fill:#000000;fill-opacity:1;}.aLgOaV3zRcolors-0 {fill:#0C0C0C;fill-opacity:0.98;}.aLgOaV3zRcolors-1 {fill:#DFDFDF;fill-opacity:1;}.aLgOaV3zRcolors-2 {fill:#929292;fill-opacity:1;}.aLgOaV3zRcolors-3 {fill:#D7D6D6;fill-opacity:1;}.aLgOaV3zRcolors-4 {fill:#C0C0C0;fill-opacity:1;}.aLgOaV3zRcolors-5 {fill:#6D6D6D;fill-opacity:1;}.aLgOaV3zRcolors-6 {fill:#454545;fill-opacity:1;}.aLgOaV3zRcolors-7 {fill:#282828;fill-opacity:1;}.icon1 {fill:#0C0C0C;fill-opacity:0.98;}.icon3-str {stroke:#929292;stroke-opacity:1;}.shapeStroke-str {stroke:#0C0C0C;stroke-opacity:1;}.text {fill:#0C0C0C;fill-opacity:1;}</style><defs>
      <filter
        x="49.9999"
        y="222.7605"
        width="260"
        height="99.072"
        id="global"
        filterUnits="userSpaceOnUse"
        primitiveUnits="userSpaceOnUse"
        color-interpolation-filters="sRGB">
        <feColorMatrix
                        type="matrix"
                        values="0.3333 0.3333 0.3333 0 0 0.3333 0.3333 0.3333 0 0 0.3333 0.3333 0.3333 0 0 0 0 0 1 0"/>
      </filter></defs><g filter="url(#global)"><g opacity="1" transform="rotate(0 170.2207 222.7605)">
<svg width="19.5585" height="15.4727" x="170.2207" y="222.7605" version="1.1" preserveAspectRatio="none" viewBox="25.9679012298584 30.976905822753903 48.06419372558594 38.023284912109375">
  <g transform="matrix(1 0 0 1 0 0)" class="aLgOaV3zRcolors-0"><title>Artboard 265</title><path d="M32,69H68a2,2,0,0,0,2-1.67l4-24a2,2,0,0,0-3-2.07L58.93,48.17l-7.1-16a2,2,0,0,0-3.66,0l-7.1,16L29,41.26a2,2,0,0,0-3,2.07l4,24A2,2,0,0,0,32,69Zm9-16.26a2,2,0,0,0,1.61.16,2,2,0,0,0,1.21-1.09L50,37.92l6.17,13.89a2,2,0,0,0,1.21,1.09A2,2,0,0,0,59,52.74l10.34-5.91L66.31,65H33.69l-3-18.17Z"></path></g>
</svg>
</g><g opacity="1" transform="rotate(0 50 229.8449)">
<svg width="110.4414" height="1.3039" x="50" y="229.8449" version="1.1" preserveAspectRatio="none" viewBox="0 0 110.4414 1.3039">
  <defs><rect x="0" y="0" width="110.4414" height="1.3039" rx="0px" ry="0px" id="id-sr1BtIxl"></rect></defs><use class="icon1 shapeStroke-str" style="stroke-width:0;" xlink:href="#id-sr1BtIxl"></use>
</svg>
</g><g opacity="1" transform="rotate(0 199.5586 229.8449)">
<svg width="110.4413" height="1.3039" x="199.5586" y="229.8449" version="1.1" preserveAspectRatio="none" viewBox="0 0 110.4413 1.3039">
  <defs><rect x="0" y="0" width="110.4413" height="1.3039" rx="0px" ry="0px" id="id-R9TavoXY"></rect></defs><use class="icon1 shapeStroke-str" style="stroke-width:0;" xlink:href="#id-R9TavoXY"></use>
</svg>
</g><g opacity="1" transform="rotate(0 49.9999 246.7957)">
<svg width="260" height="45.6368" x="49.9999" y="246.7957" version="1.1" preserveAspectRatio="none" viewBox="0.8 -28.76 167.03999999999996 29.32">
  <g transform="matrix(1 0 0 1 0 0)" class="aD6z1nYkhcolor"><path id="id-D6z1nYkh6" d="M23.56-23.76L23.56-24.44Q23.56-25.40 22.88-26.10Q22.20-26.80 21.28-26.84L21.28-26.84L13.68-26.84L13.68-2.88Q13.72-1.84 14.46-1.12Q15.20-0.40 16.24-0.40L16.24-0.40L16.76-0.40L16.76 0L8 0L8-0.40L8.52-0.40Q9.56-0.40 10.30-1.12Q11.04-1.84 11.08-2.84L11.08-2.84L11.08-26.84L3.48-26.84Q2.52-26.80 1.86-26.10Q1.20-25.40 1.20-24.44L1.20-24.44L1.20-23.76L0.80-23.72L0.80-28.76Q1.40-28.52 2.88-28.28Q4.36-28.04 5.60-28.04L5.60-28.04L19.12-28.04Q21.08-28.04 22.38-28.34Q23.68-28.64 23.96-28.76L23.96-28.76L23.96-23.72L23.56-23.76Z M28.92-0.40L29.48-0.40Q30.44-0.40 31.10-1.02Q31.76-1.64 31.80-2.52L31.80-2.52L31.80-21.52Q31.80-22.40 31.12-23Q30.44-23.60 29.48-23.60L29.48-23.60L28.92-23.60L28.92-24L40.60-24Q42.24-24 43.48-24.24Q44.72-24.48 45.08-24.64L45.08-24.64L45.08-20.08L44.64-20.12L44.64-20.72Q44.64-21.56 44.08-22.16Q43.52-22.76 42.64-22.76L42.64-22.76L34.32-22.76L34.32-12.60L41.16-12.60Q41.96-12.60 42.38-13.08Q42.80-13.56 42.80-14.28L42.80-14.28L42.80-14.80L43.24-14.80L43.24-9.20L42.80-9.20L42.80-9.72Q42.80-10.84 41.96-11.24L41.96-11.24Q41.64-11.36 41.28-11.40L41.28-11.40L34.32-11.40L34.32-1.24L40.60-1.24Q42.44-1.24 43.70-1.88Q44.96-2.52 45.62-3.40Q46.28-4.28 46.96-5.72L46.96-5.72L47.36-5.72L45.16 0L28.92 0L28.92-0.40Z M52.36-0.40L52.92-0.40Q53.88-0.40 54.54-1.02Q55.20-1.64 55.24-2.52L55.24-2.52L55.24-21.44Q55.20-22.32 54.50-22.96Q53.80-23.60 52.84-23.60L52.84-23.60L52.36-23.60L52.36-24L60.64-24L60.64-23.60L60.16-23.60Q59.20-23.60 58.50-22.96Q57.80-22.32 57.80-21.44L57.80-21.44L57.80-1.24L64.04-1.24Q65.88-1.24 67.16-1.88Q68.44-2.52 69.10-3.40Q69.76-4.28 70.40-5.72L70.40-5.72L70.80-5.72L68.60 0L52.36 0L52.36-0.40Z M103.36-23.60L102.68-23.60Q101.80-23.60 101.16-23.02Q100.52-22.44 100.48-21.60L100.48-21.60L100.48-4.56Q100.48-2.24 100.76-0.16L100.76-0.16L100.84 0.56L100.48 0.56L79.68-19.16L79.68-2.48Q79.68-1.60 80.32-1Q80.96-0.40 81.88-0.40L81.88-0.40L82.56-0.40L82.56 0L75.00 0L75.00-0.40L75.68-0.40Q76.60-0.40 77.24-1Q77.88-1.60 77.88-2.48L77.88-2.48L77.88-19.60Q77.88-22.04 77.60-23.96L77.60-23.96L77.52-24.60L77.96-24.56L98.72-5L98.72-21.60Q98.64-22.44 98.00-23.02Q97.36-23.60 96.48-23.60L96.48-23.60L95.80-23.60L95.80-24L103.36-24L103.36-23.60Z M142.92-24L142.92-23.60L142.64-23.60Q140.24-23.60 139.36-21.24L139.36-21.24L133.56-3.96Q132.68-1.44 132.64 0.48L132.64 0.48L132.24 0.48L124.80-18.56L119.60-3.96Q118.80-1.48 118.72 0.48L118.72 0.48L118.36 0.48L109.96-21.40Q109.04-23.60 106.76-23.60L106.76-23.60L106.44-23.60L106.44-24L114.68-24L114.68-23.60L114.36-23.60Q113.64-23.60 113.26-23.16Q112.88-22.72 112.88-22.28Q112.88-21.84 113-21.44L113-21.44L118.32-5.16L125.08-24.64L125.48-24.60L132.64-6.36L137.12-21.20Q137.32-21.76 137.32-22.20Q137.32-22.64 137-23.12Q136.68-23.60 135.92-23.60L135.92-23.60L135.60-23.60L135.60-24L142.92-24Z M167.52-0.40L167.52-0.40L167.84-0.40L167.84 0L159.64 0L159.64-0.40L159.96-0.40Q160.72-0.40 161.12-0.92Q161.52-1.44 161.52-1.90Q161.52-2.36 161.36-2.80L161.36-2.80L159.16-8.12L149.04-8.12L146.84-2.92Q146.64-2.40 146.64-1.94Q146.64-1.48 147.04-0.94Q147.44-0.40 148.24-0.40L148.24-0.40L148.56-0.40L148.56 0L140.92 0L140.92-0.40L141.24-0.40Q142.08-0.40 142.94-0.98Q143.80-1.56 144.36-2.72L144.36-2.72Q153.12-21.44 153.48-22.32L153.48-22.32Q154.16-24 154.20-24.56L154.20-24.56L154.56-24.56L164.44-2.72Q165.60-0.40 167.52-0.40ZM154.20-20.28L149.56-9.32L158.68-9.32L154.20-20.28Z"/></g>
</svg>
</g><g opacity="1" transform="rotate(0 85.26 292.4325)">
<svg width="189.48" height="29.4" x="85.26" y="292.4325" version="1.1" preserveAspectRatio="none" viewBox="4.16 -28.92 189.48 29.400000000000002">
  <g transform="matrix(1 0 0 1 0 0)" class="text"><path id="id--7QhbYdid10" d="M4.16-28.92L8.04-28.92L8.04 0L4.16 0L4.16-28.92Z M25.72-17.20Q28.04-17.20 29.56-15.82Q31.08-14.44 31.12-12.24L31.12-12.24L31.12 0L27.36 0L27.36-10.96Q27.28-12.36 26.52-13.16Q25.76-13.96 24.24-14L24.24-14Q22.04-14 20.60-12.24Q19.16-10.48 19.16-7.76L19.16-7.76L19.16 0L15.44 0L15.44-16.56L18.80-16.56L19.04-13.36Q19.92-15.16 21.68-16.18Q23.44-17.20 25.72-17.20L25.72-17.20Z M48.56-16.56L52.72-16.56L43.88 0.48L43.68 0.48L34.48-16.56L38.92-16.56L43.92-6L48.56-16.56Z M64.08-2.80Q66.16-2.80 68.12-4.24L68.12-4.24L69.84-1.48Q68.52-0.60 66.98-0.10Q65.44 0.40 64 0.40L64 0.40Q61.24 0.40 59.18-0.74Q57.12-1.88 56.00-3.88Q54.88-5.88 54.88-8.40L54.88-8.40Q54.88-10.84 56.10-12.86Q57.32-14.88 59.44-16.06Q61.56-17.24 64.08-17.24L64.08-17.24Q67.32-17.24 69.50-15.34Q71.68-13.44 72.48-10.04L72.48-10.04L59.36-5.44Q60.08-4.20 61.30-3.50Q62.52-2.80 64.08-2.80L64.08-2.80ZM63.80-14.28Q61.52-14.28 60.04-12.68Q58.56-11.08 58.56-8.60L58.56-8.60Q58.56-8 58.60-7.68L58.60-7.68L68.24-11.24Q67.64-12.60 66.54-13.44Q65.44-14.28 63.80-14.28L63.80-14.28Z M81.80 0.36Q79.96 0.36 78.30-0.28Q76.64-0.92 75.60-2.16L75.60-2.16L77.20-4.32Q78.20-3.36 79.30-2.84Q80.40-2.32 81.48-2.32L81.48-2.32Q82.80-2.32 83.64-2.84Q84.48-3.36 84.48-4.44L84.48-4.44Q84.48-5.28 83.96-5.80Q83.44-6.32 82.78-6.56Q82.12-6.80 80.56-7.28L80.56-7.28Q76.32-8.64 76.32-12.12L76.32-12.12Q76.32-14.20 77.86-15.68Q79.40-17.16 82.16-17.16L82.16-17.16Q83.92-17.16 85.28-16.72Q86.64-16.28 87.80-15.32L87.80-15.32L86.32-13.04Q85.68-13.72 84.70-14.12Q83.72-14.52 82.84-14.56L82.84-14.56Q81.72-14.56 80.92-14.02Q80.12-13.48 80.12-12.56L80.12-12.56Q80.12-11.80 80.64-11.30Q81.16-10.80 81.72-10.58Q82.28-10.36 83.92-9.84L83.92-9.84Q85.96-9.16 87.10-8.08Q88.24-7 88.24-5.16L88.24-5.16Q88.24-2.76 86.56-1.20Q84.88 0.36 81.80 0.36L81.80 0.36Z M95.04-23.84L98.80-23.84L98.80-16.52L103.32-16.52L103.32-13.56L98.80-13.56L98.80 0L95.04 0L95.04-13.56L92.00-13.56L92.00-16.52L95.04-16.52L95.04-23.84Z M129.08-17.24Q131.48-17.24 132.90-15.88Q134.32-14.52 134.40-12.28L134.40-12.28L134.40 0L130.68 0L130.68-10.92Q130.56-13.84 128.04-14L128.04-14Q126.60-14 125.46-13.14Q124.32-12.28 123.68-10.88Q123.04-9.48 123.00-7.88L123.00-7.88L123.00 0L119.24 0L119.24-10.92Q119.12-13.84 116.52-14L116.52-14Q115.12-14 113.98-13.14Q112.84-12.28 112.20-10.86Q111.56-9.44 111.56-7.84L111.56-7.84L111.56 0L107.84 0L107.84-16.56L111.20-16.56L111.48-13.44Q112.44-15.24 114.10-16.24Q115.76-17.24 117.88-17.24L117.88-17.24Q119.88-17.24 121.24-16.30Q122.60-15.36 123.00-13.72L123.00-13.72Q124.04-15.36 125.64-16.30Q127.24-17.24 129.08-17.24L129.08-17.24Z M148.60-2.80Q150.68-2.80 152.64-4.24L152.64-4.24L154.36-1.48Q153.04-0.60 151.50-0.10Q149.96 0.40 148.52 0.40L148.52 0.40Q145.76 0.40 143.70-0.74Q141.64-1.88 140.52-3.88Q139.40-5.88 139.40-8.40L139.40-8.40Q139.40-10.84 140.62-12.86Q141.84-14.88 143.96-16.06Q146.08-17.24 148.60-17.24L148.60-17.24Q151.84-17.24 154.02-15.34Q156.20-13.44 157.00-10.04L157.00-10.04L143.88-5.44Q144.60-4.20 145.82-3.50Q147.04-2.80 148.60-2.80L148.60-2.80ZM148.32-14.28Q146.04-14.28 144.56-12.68Q143.08-11.08 143.08-8.60L143.08-8.60Q143.08-8 143.12-7.68L143.12-7.68L152.76-11.24Q152.16-12.60 151.06-13.44Q149.96-14.28 148.32-14.28L148.32-14.28Z M171.92-17.20Q174.24-17.20 175.76-15.82Q177.28-14.44 177.32-12.24L177.32-12.24L177.32 0L173.56 0L173.56-10.96Q173.48-12.36 172.72-13.16Q171.96-13.96 170.44-14L170.44-14Q168.24-14 166.80-12.24Q165.36-10.48 165.36-7.76L165.36-7.76L165.36 0L161.64 0L161.64-16.56L165.00-16.56L165.24-13.36Q166.12-15.16 167.88-16.18Q169.64-17.20 171.92-17.20L171.92-17.20Z M185.36-23.84L189.12-23.84L189.12-16.52L193.64-16.52L193.64-13.56L189.12-13.56L189.12 0L185.36 0L185.36-13.56L182.32-13.56L182.32-16.52L185.36-16.52L185.36-23.84Z"/></g>
</svg>
</g></g></svg>